<svg width="152" height="44" viewBox="0 0 152 44" fill="none" xmlns="http://www.w3.org/2000/svg">
<rect x="0.5" y="0.5" width="151" height="43" rx="8.5" fill="#000C3A"/>
<rect x="0.5" y="0.5" width="151" height="43" rx="8.5" stroke="#0059FF"/>
<path d="M37.1884 22V10.885H41.0434C41.8334 10.885 42.5434 10.99 43.1734 11.2C43.8034 11.4 44.3034 11.75 44.6734 12.25C45.0434 12.74 45.2284 13.41 45.2284 14.26C45.2284 15.08 45.0434 15.755 44.6734 16.285C44.3034 16.805 43.8034 17.19 43.1734 17.44C42.5434 17.68 41.8334 17.8 41.0434 17.8H39.4084V22H37.1884ZM39.4084 16.045H40.8484C41.5684 16.045 42.1134 15.895 42.4834 15.595C42.8634 15.295 43.0534 14.85 43.0534 14.26C43.0534 13.66 42.8634 13.245 42.4834 13.015C42.1134 12.775 41.5684 12.655 40.8484 12.655H39.4084V16.045ZM43.2184 22L40.6384 17.23L42.1984 15.85L45.7084 22H43.2184ZM48.463 22V10.885H55.273V12.745H50.683V15.31H54.568V17.17H50.683V20.14H55.438V22H48.463ZM57.3166 22L60.8716 10.885H63.4966L67.0516 22H64.7116L63.1366 16.21C62.9666 15.63 62.8016 15.03 62.6416 14.41C62.4916 13.78 62.3316 13.17 62.1616 12.58H62.1016C61.9616 13.18 61.8066 13.79 61.6366 14.41C61.4766 15.03 61.3166 15.63 61.1566 16.21L59.5666 22H57.3166ZM59.5216 19.15V17.425H64.8016V19.15H59.5216ZM69.4009 22V10.885H72.4459C73.5859 10.885 74.5609 11.085 75.3709 11.485C76.1909 11.885 76.8209 12.49 77.2609 13.3C77.7109 14.11 77.9359 15.14 77.9359 16.39C77.9359 17.64 77.7159 18.68 77.2759 19.51C76.8359 20.34 76.2159 20.965 75.4159 21.385C74.6159 21.795 73.6659 22 72.5659 22H69.4009ZM71.6209 20.2H72.2959C72.9959 20.2 73.5959 20.075 74.0959 19.825C74.6059 19.565 74.9959 19.155 75.2659 18.595C75.5359 18.025 75.6709 17.29 75.6709 16.39C75.6709 15.49 75.5359 14.77 75.2659 14.23C74.9959 13.68 74.6059 13.285 74.0959 13.045C73.5959 12.795 72.9959 12.67 72.2959 12.67H71.6209V20.2ZM85.6074 22V10.885H88.0674L89.9574 16.105C90.0774 16.435 90.1924 16.785 90.3024 17.155C90.4124 17.515 90.5224 17.87 90.6324 18.22H90.7074C90.8274 17.87 90.9424 17.515 91.0524 17.155C91.1624 16.785 91.2674 16.435 91.3674 16.105L93.2274 10.885H95.6874V22H93.6624V17.365C93.6624 17.005 93.6774 16.61 93.7074 16.18C93.7374 15.75 93.7724 15.32 93.8124 14.89C93.8624 14.45 93.9074 14.06 93.9474 13.72H93.8874L92.9724 16.33L91.2624 20.995H89.9874L88.2624 16.33L87.3774 13.72H87.3174C87.3574 14.06 87.3974 14.45 87.4374 14.89C87.4774 15.32 87.5124 15.75 87.5424 16.18C87.5824 16.61 87.6024 17.005 87.6024 17.365V22H85.6074ZM103.855 22.21C102.875 22.21 102.01 21.98 101.26 21.52C100.52 21.05 99.9405 20.38 99.5205 19.51C99.1005 18.64 98.8905 17.6 98.8905 16.39C98.8905 15.19 99.1005 14.165 99.5205 13.315C99.9405 12.465 100.52 11.815 101.26 11.365C102.01 10.915 102.875 10.69 103.855 10.69C104.845 10.69 105.71 10.92 106.45 11.38C107.19 11.83 107.77 12.48 108.19 13.33C108.61 14.17 108.82 15.19 108.82 16.39C108.82 17.6 108.61 18.64 108.19 19.51C107.77 20.38 107.19 21.05 106.45 21.52C105.71 21.98 104.845 22.21 103.855 22.21ZM103.855 20.29C104.405 20.29 104.88 20.13 105.28 19.81C105.69 19.49 106.005 19.04 106.225 18.46C106.445 17.87 106.555 17.18 106.555 16.39C106.555 15.6 106.445 14.925 106.225 14.365C106.005 13.795 105.69 13.36 105.28 13.06C104.88 12.75 104.405 12.595 103.855 12.595C103.305 12.595 102.825 12.75 102.415 13.06C102.015 13.36 101.705 13.795 101.485 14.365C101.275 14.925 101.17 15.6 101.17 16.39C101.17 17.18 101.275 17.87 101.485 18.46C101.705 19.04 102.015 19.49 102.415 19.81C102.825 20.13 103.305 20.29 103.855 20.29ZM112.038 22V10.885H115.893C116.683 10.885 117.393 10.99 118.023 11.2C118.653 11.4 119.153 11.75 119.523 12.25C119.893 12.74 120.078 13.41 120.078 14.26C120.078 15.08 119.893 15.755 119.523 16.285C119.153 16.805 118.653 17.19 118.023 17.44C117.393 17.68 116.683 17.8 115.893 17.8H114.258V22H112.038ZM114.258 16.045H115.698C116.418 16.045 116.963 15.895 117.333 15.595C117.713 15.295 117.903 14.85 117.903 14.26C117.903 13.66 117.713 13.245 117.333 13.015C116.963 12.775 116.418 12.655 115.698 12.655H114.258V16.045ZM118.068 22L115.488 17.23L117.048 15.85L120.558 22H118.068ZM123.313 22V10.885H130.123V12.745H125.533V15.31H129.418V17.17H125.533V20.14H130.288V22H123.313Z" fill="#008AEC"/>
<path d="M38.8069 28.288C39.2975 28.288 39.7002 28.3493 40.0149 28.472C40.3295 28.5947 40.5642 28.7787 40.7189 29.024C40.8735 29.264 40.9509 29.568 40.9509 29.936C40.9509 30.2293 40.8949 30.4773 40.7829 30.68C40.6762 30.8773 40.5375 31.04 40.3669 31.168C40.1962 31.2907 40.0175 31.3893 39.8309 31.464L41.4309 34H40.4389L39.0629 31.688H38.0709V34H37.2069V28.288H38.8069ZM38.7509 29.024H38.0709V30.968H38.7909C39.0842 30.968 39.3242 30.9307 39.5109 30.856C39.7029 30.7813 39.8415 30.6693 39.9269 30.52C40.0175 30.3707 40.0629 30.1867 40.0629 29.968C40.0629 29.7387 40.0149 29.5573 39.9189 29.424C39.8282 29.2853 39.6842 29.184 39.4869 29.12C39.2949 29.056 39.0495 29.024 38.7509 29.024ZM43.7894 34H41.5734V33.504L42.2534 33.304V28.992L41.5734 28.784V28.288H43.7894V28.784L43.1174 28.992V33.304L43.7894 33.504V34ZM47.0575 28.952C46.7748 28.952 46.5215 29.0027 46.2975 29.104C46.0735 29.2 45.8815 29.344 45.7215 29.536C45.5668 29.728 45.4468 29.96 45.3615 30.232C45.2815 30.504 45.2415 30.8107 45.2415 31.152C45.2415 31.6 45.3082 31.9893 45.4415 32.32C45.5748 32.6453 45.7748 32.896 46.0415 33.072C46.3082 33.248 46.6442 33.336 47.0495 33.336C47.2948 33.336 47.5295 33.3147 47.7535 33.272C47.9828 33.224 48.2148 33.1627 48.4495 33.088V33.832C48.2255 33.9173 47.9962 33.9787 47.7615 34.016C47.5268 34.0587 47.2548 34.08 46.9455 34.08C46.3642 34.08 45.8788 33.96 45.4895 33.72C45.1055 33.48 44.8175 33.1387 44.6255 32.696C44.4335 32.2533 44.3375 31.736 44.3375 31.144C44.3375 30.712 44.3962 30.3173 44.5135 29.96C44.6362 29.5973 44.8122 29.2853 45.0415 29.024C45.2708 28.7627 45.5535 28.5627 45.8895 28.424C46.2308 28.28 46.6228 28.208 47.0655 28.208C47.3535 28.208 47.6362 28.24 47.9135 28.304C48.1908 28.3627 48.4415 28.448 48.6655 28.56L48.3455 29.28C48.1588 29.1947 47.9562 29.12 47.7375 29.056C47.5242 28.9867 47.2975 28.952 47.0575 28.952ZM53.896 34H53.032V31.392H50.304V34H49.44V28.288H50.304V30.656H53.032V28.288H53.896V34ZM58.7444 34L58.1364 32.352H55.9284L55.3204 34H54.4244L56.5924 28.264H57.4884L59.6484 34H58.7444ZM57.3204 29.992C57.3044 29.9333 57.275 29.8453 57.2324 29.728C57.195 29.6053 57.1577 29.4827 57.1204 29.36C57.083 29.232 57.0537 29.128 57.0324 29.048C57.0057 29.1547 56.9737 29.272 56.9364 29.4C56.9044 29.5227 56.8724 29.6373 56.8404 29.744C56.8084 29.8453 56.7817 29.928 56.7604 29.992L56.1844 31.6H57.8964L57.3204 29.992ZM64.8028 31.088C64.8028 31.728 64.6828 32.264 64.4428 32.696C64.2028 33.128 63.8561 33.4533 63.4028 33.672C62.9548 33.8907 62.4134 34 61.7788 34H60.1788V28.288H61.9468C62.5281 28.288 63.0321 28.3947 63.4588 28.608C63.8854 28.8213 64.2161 29.136 64.4508 29.552C64.6854 29.9627 64.8028 30.4747 64.8028 31.088ZM63.8988 31.112C63.8988 30.632 63.8214 30.2373 63.6668 29.928C63.5121 29.6187 63.2828 29.3893 62.9788 29.24C62.6801 29.0907 62.3174 29.016 61.8908 29.016H61.0428V33.272H61.7388C62.4588 33.272 62.9974 33.0907 63.3548 32.728C63.7174 32.3653 63.8988 31.8267 63.8988 31.112ZM70.4299 31.088C70.4299 31.728 70.3099 32.264 70.0699 32.696C69.8299 33.128 69.4833 33.4533 69.0299 33.672C68.5819 33.8907 68.0406 34 67.4059 34H65.8059V28.288H67.5739C68.1553 28.288 68.6593 28.3947 69.0859 28.608C69.5126 28.8213 69.8433 29.136 70.0779 29.552C70.3126 29.9627 70.4299 30.4747 70.4299 31.088ZM69.5259 31.112C69.5259 30.632 69.4486 30.2373 69.2939 29.928C69.1393 29.6187 68.9099 29.3893 68.6059 29.24C68.3073 29.0907 67.9446 29.016 67.5179 29.016H66.6699V33.272H67.3659C68.0859 33.272 68.6246 33.0907 68.9819 32.728C69.3446 32.3653 69.5259 31.8267 69.5259 31.112ZM73.0331 28.288C73.5238 28.288 73.9265 28.3493 74.2411 28.472C74.5558 28.5947 74.7905 28.7787 74.9451 29.024C75.0998 29.264 75.1771 29.568 75.1771 29.936C75.1771 30.2293 75.1211 30.4773 75.0091 30.68C74.9025 30.8773 74.7638 31.04 74.5931 31.168C74.4225 31.2907 74.2438 31.3893 74.0571 31.464L75.6571 34H74.6651L73.2891 31.688H72.2971V34H71.4331V28.288H73.0331ZM72.9771 29.024H72.2971V30.968H73.0171C73.3105 30.968 73.5505 30.9307 73.7371 30.856C73.9291 30.7813 74.0678 30.6693 74.1531 30.52C74.2438 30.3707 74.2891 30.1867 74.2891 29.968C74.2891 29.7387 74.2411 29.5573 74.1451 29.424C74.0545 29.2853 73.9105 29.184 73.7131 29.12C73.5211 29.056 73.2758 29.024 72.9771 29.024ZM79.4716 34H76.2556V28.288H79.4716V29.024H77.1196V30.656H79.3276V31.384H77.1196V33.256H79.4716V34ZM83.7488 32.456C83.7488 32.7973 83.6661 33.088 83.5008 33.328C83.3354 33.568 83.0981 33.7547 82.7888 33.888C82.4794 34.016 82.1114 34.08 81.6848 34.08C81.4768 34.08 81.2768 34.0667 81.0848 34.04C80.8928 34.0187 80.7141 33.9867 80.5488 33.944C80.3834 33.9013 80.2368 33.848 80.1088 33.784V32.968C80.3221 33.064 80.5728 33.152 80.8608 33.232C81.1488 33.3067 81.4421 33.344 81.7408 33.344C81.9968 33.344 82.2101 33.3093 82.3808 33.24C82.5514 33.1707 82.6794 33.0747 82.7648 32.952C82.8501 32.8293 82.8928 32.6853 82.8928 32.52C82.8928 32.344 82.8474 32.1973 82.7568 32.08C82.6714 31.9573 82.5354 31.8453 82.3488 31.744C82.1674 31.6373 81.9221 31.5253 81.6128 31.408C81.3994 31.328 81.2048 31.24 81.0288 31.144C80.8581 31.0427 80.7061 30.9253 80.5728 30.792C80.4448 30.6587 80.3461 30.504 80.2768 30.328C80.2074 30.152 80.1728 29.9467 80.1728 29.712C80.1728 29.3973 80.2501 29.128 80.4048 28.904C80.5648 28.68 80.7834 28.5093 81.0608 28.392C81.3381 28.2693 81.6608 28.208 82.0288 28.208C82.3381 28.208 82.6234 28.24 82.8848 28.304C83.1514 28.3627 83.4048 28.4453 83.6448 28.552L83.3728 29.264C83.1541 29.1733 82.9328 29.0987 82.7088 29.04C82.4848 28.9813 82.2501 28.952 82.0048 28.952C81.7914 28.952 81.6128 28.984 81.4688 29.048C81.3248 29.112 81.2154 29.2 81.1408 29.312C81.0714 29.424 81.0368 29.5547 81.0368 29.704C81.0368 29.88 81.0768 30.0267 81.1568 30.144C81.2368 30.2613 81.3648 30.3707 81.5408 30.472C81.7168 30.568 81.9488 30.6747 82.2368 30.792C82.5568 30.9147 82.8288 31.048 83.0528 31.192C83.2821 31.336 83.4554 31.5093 83.5728 31.712C83.6901 31.9093 83.7488 32.1573 83.7488 32.456ZM87.9072 32.456C87.9072 32.7973 87.8245 33.088 87.6592 33.328C87.4939 33.568 87.2565 33.7547 86.9472 33.888C86.6379 34.016 86.2699 34.08 85.8432 34.08C85.6352 34.08 85.4352 34.0667 85.2432 34.04C85.0512 34.0187 84.8725 33.9867 84.7072 33.944C84.5419 33.9013 84.3952 33.848 84.2672 33.784V32.968C84.4805 33.064 84.7312 33.152 85.0192 33.232C85.3072 33.3067 85.6005 33.344 85.8992 33.344C86.1552 33.344 86.3685 33.3093 86.5392 33.24C86.7099 33.1707 86.8379 33.0747 86.9232 32.952C87.0085 32.8293 87.0512 32.6853 87.0512 32.52C87.0512 32.344 87.0059 32.1973 86.9152 32.08C86.8299 31.9573 86.6939 31.8453 86.5072 31.744C86.3259 31.6373 86.0805 31.5253 85.7712 31.408C85.5579 31.328 85.3632 31.24 85.1872 31.144C85.0165 31.0427 84.8645 30.9253 84.7312 30.792C84.6032 30.6587 84.5045 30.504 84.4352 30.328C84.3659 30.152 84.3312 29.9467 84.3312 29.712C84.3312 29.3973 84.4085 29.128 84.5632 28.904C84.7232 28.68 84.9419 28.5093 85.2192 28.392C85.4965 28.2693 85.8192 28.208 86.1872 28.208C86.4965 28.208 86.7819 28.24 87.0432 28.304C87.3099 28.3627 87.5632 28.4453 87.8032 28.552L87.5312 29.264C87.3125 29.1733 87.0912 29.0987 86.8672 29.04C86.6432 28.9813 86.4085 28.952 86.1632 28.952C85.9499 28.952 85.7712 28.984 85.6272 29.048C85.4832 29.112 85.3739 29.2 85.2992 29.312C85.2299 29.424 85.1952 29.5547 85.1952 29.704C85.1952 29.88 85.2352 30.0267 85.3152 30.144C85.3952 30.2613 85.5232 30.3707 85.6992 30.472C85.8752 30.568 86.1072 30.6747 86.3952 30.792C86.7152 30.9147 86.9872 31.048 87.2112 31.192C87.4405 31.336 87.6139 31.5093 87.7312 31.712C87.8485 31.9093 87.9072 32.1573 87.9072 32.456ZM93.4096 31.088C93.4096 31.728 93.2896 32.264 93.0496 32.696C92.8096 33.128 92.463 33.4533 92.0096 33.672C91.5616 33.8907 91.0203 34 90.3856 34H88.7856V28.288H90.5536C91.135 28.288 91.639 28.3947 92.0656 28.608C92.4923 28.8213 92.823 29.136 93.0576 29.552C93.2923 29.9627 93.4096 30.4747 93.4096 31.088ZM92.5056 31.112C92.5056 30.632 92.4283 30.2373 92.2736 29.928C92.119 29.6187 91.8896 29.3893 91.5856 29.24C91.287 29.0907 90.9243 29.016 90.4976 29.016H89.6496V33.272H90.3456C91.0656 33.272 91.6043 33.0907 91.9616 32.728C92.3243 32.3653 92.5056 31.8267 92.5056 31.112ZM99.4528 31.136C99.4528 31.5787 99.3968 31.9813 99.2848 32.344C99.1781 32.7013 99.0128 33.0107 98.7888 33.272C98.5701 33.5333 98.2928 33.7333 97.9568 33.872C97.6261 34.0107 97.2395 34.08 96.7968 34.08C96.3435 34.08 95.9488 34.0107 95.6128 33.872C95.2821 33.728 95.0048 33.528 94.7808 33.272C94.5621 33.0107 94.3995 32.6987 94.2928 32.336C94.1861 31.9733 94.1328 31.5707 94.1328 31.128C94.1328 30.5413 94.2288 30.0293 94.4208 29.592C94.6128 29.1547 94.9061 28.8133 95.3008 28.568C95.7008 28.3227 96.2021 28.2 96.8048 28.2C97.3915 28.2 97.8795 28.3227 98.2688 28.568C98.6635 28.808 98.9595 29.1493 99.1568 29.592C99.3541 30.0293 99.4528 30.544 99.4528 31.136ZM95.0448 31.136C95.0448 31.5947 95.1061 31.9893 95.2288 32.32C95.3515 32.6453 95.5435 32.8987 95.8048 33.08C96.0661 33.256 96.3968 33.344 96.7968 33.344C97.2021 33.344 97.5328 33.256 97.7888 33.08C98.0448 32.8987 98.2341 32.6453 98.3568 32.32C98.4795 31.9893 98.5408 31.5947 98.5408 31.136C98.5408 30.448 98.4021 29.912 98.1248 29.528C97.8528 29.1387 97.4128 28.944 96.8048 28.944C96.3995 28.944 96.0661 29.032 95.8048 29.208C95.5435 29.384 95.3515 29.6347 95.2288 29.96C95.1061 30.2853 95.0448 30.6773 95.0448 31.136ZM107.072 28.288L105.568 34H104.648L103.64 30.472C103.608 30.376 103.576 30.2693 103.544 30.152C103.517 30.0347 103.491 29.92 103.464 29.808C103.437 29.6907 103.413 29.5867 103.392 29.496C103.376 29.4053 103.363 29.336 103.352 29.288C103.347 29.336 103.336 29.4053 103.32 29.496C103.304 29.5867 103.283 29.6907 103.256 29.808C103.229 29.92 103.203 30.0373 103.176 30.16C103.149 30.2773 103.12 30.3893 103.088 30.496L102.096 34H101.176L99.6799 28.288H100.568L101.408 31.664C101.435 31.7813 101.461 31.9013 101.488 32.024C101.515 32.1467 101.539 32.2693 101.56 32.392C101.587 32.5147 101.608 32.6347 101.624 32.752C101.645 32.864 101.664 32.968 101.68 33.064C101.696 32.9627 101.712 32.8533 101.728 32.736C101.749 32.6187 101.773 32.4987 101.8 32.376C101.827 32.248 101.853 32.1227 101.88 32C101.912 31.8773 101.944 31.7653 101.976 31.664L102.928 28.288H103.792L104.776 31.68C104.808 31.7867 104.837 31.9013 104.864 32.024C104.896 32.1467 104.925 32.272 104.952 32.4C104.979 32.5227 105 32.6427 105.016 32.76C105.037 32.872 105.056 32.9733 105.072 33.064C105.088 32.9307 105.109 32.7867 105.136 32.632C105.168 32.472 105.203 32.3093 105.24 32.144C105.277 31.9733 105.315 31.8133 105.352 31.664L106.192 28.288H107.072ZM112.355 34H111.307L108.419 29.384H108.387C108.393 29.4907 108.398 29.6053 108.403 29.728C108.414 29.8507 108.422 29.9813 108.427 30.12C108.433 30.2533 108.438 30.392 108.443 30.536C108.449 30.6747 108.451 30.816 108.451 30.96V34H107.667V28.288H108.707L111.587 32.88H111.611C111.606 32.8 111.601 32.7013 111.595 32.584C111.59 32.4613 111.585 32.3307 111.579 32.192C111.579 32.0533 111.577 31.912 111.571 31.768C111.566 31.624 111.561 31.488 111.555 31.36V28.288H112.355V34ZM113.638 34V28.288H114.502V33.256H116.942V34H113.638ZM122.571 31.136C122.571 31.5787 122.515 31.9813 122.403 32.344C122.296 32.7013 122.131 33.0107 121.907 33.272C121.688 33.5333 121.411 33.7333 121.075 33.872C120.744 34.0107 120.358 34.08 119.915 34.08C119.462 34.08 119.067 34.0107 118.731 33.872C118.4 33.728 118.123 33.528 117.899 33.272C117.68 33.0107 117.518 32.6987 117.411 32.336C117.304 31.9733 117.251 31.5707 117.251 31.128C117.251 30.5413 117.347 30.0293 117.539 29.592C117.731 29.1547 118.024 28.8133 118.419 28.568C118.819 28.3227 119.32 28.2 119.923 28.2C120.51 28.2 120.998 28.3227 121.387 28.568C121.782 28.808 122.078 29.1493 122.275 29.592C122.472 30.0293 122.571 30.544 122.571 31.136ZM118.163 31.136C118.163 31.5947 118.224 31.9893 118.347 32.32C118.47 32.6453 118.662 32.8987 118.923 33.08C119.184 33.256 119.515 33.344 119.915 33.344C120.32 33.344 120.651 33.256 120.907 33.08C121.163 32.8987 121.352 32.6453 121.475 32.32C121.598 31.9893 121.659 31.5947 121.659 31.136C121.659 30.448 121.52 29.912 121.243 29.528C120.971 29.1387 120.531 28.944 119.923 28.944C119.518 28.944 119.184 29.032 118.923 29.208C118.662 29.384 118.47 29.6347 118.347 29.96C118.224 30.2853 118.163 30.6773 118.163 31.136ZM126.976 34L126.368 32.352H124.16L123.552 34H122.656L124.824 28.264H125.72L127.88 34H126.976ZM125.552 29.992C125.536 29.9333 125.507 29.8453 125.464 29.728C125.427 29.6053 125.389 29.4827 125.352 29.36C125.315 29.232 125.285 29.128 125.264 29.048C125.237 29.1547 125.205 29.272 125.168 29.4C125.136 29.5227 125.104 29.6373 125.072 29.744C125.04 29.8453 125.013 29.928 124.992 29.992L124.416 31.6H126.128L125.552 29.992ZM133.034 31.088C133.034 31.728 132.914 32.264 132.674 32.696C132.434 33.128 132.088 33.4533 131.634 33.672C131.186 33.8907 130.645 34 130.01 34H128.41V28.288H130.178C130.76 28.288 131.264 28.3947 131.69 28.608C132.117 28.8213 132.448 29.136 132.682 29.552C132.917 29.9627 133.034 30.4747 133.034 31.088ZM132.13 31.112C132.13 30.632 132.053 30.2373 131.898 29.928C131.744 29.6187 131.514 29.3893 131.21 29.24C130.912 29.0907 130.549 29.016 130.122 29.016H129.274V33.272H129.97C130.69 33.272 131.229 33.0907 131.586 32.728C131.949 32.3653 132.13 31.8267 132.13 31.112ZM137.254 34H134.038V28.288H137.254V29.024H134.902V30.656H137.11V31.384H134.902V33.256H137.254V34ZM139.851 28.288C140.341 28.288 140.744 28.3493 141.059 28.472C141.373 28.5947 141.608 28.7787 141.763 29.024C141.917 29.264 141.995 29.568 141.995 29.936C141.995 30.2293 141.939 30.4773 141.827 30.68C141.72 30.8773 141.581 31.04 141.411 31.168C141.24 31.2907 141.061 31.3893 140.875 31.464L142.475 34H141.483L140.107 31.688H139.115V34H138.251V28.288H139.851ZM139.795 29.024H139.115V30.968H139.835C140.128 30.968 140.368 30.9307 140.555 30.856C140.747 30.7813 140.885 30.6693 140.971 30.52C141.061 30.3707 141.107 30.1867 141.107 29.968C141.107 29.7387 141.059 29.5573 140.963 29.424C140.872 29.2853 140.728 29.184 140.531 29.12C140.339 29.056 140.093 29.024 139.795 29.024Z" fill="#00AAFF"/>
<path d="M19.6109 31.0932C18.4064 32.2354 16.9771 32.7843 15.3231 32.7399C13.669 32.6954 12.2709 32.0715 11.1286 30.8681C9.98632 29.6647 9.43743 28.2354 9.48192 26.5803C9.52641 24.9251 10.1503 23.5269 11.3537 22.3858L13.9659 19.9086C14.2126 19.6747 14.4988 19.562 14.8246 19.5707C15.1503 19.5793 15.4295 19.707 15.6624 19.9537C15.8952 20.2003 16.0078 20.4866 16.0003 20.8123C15.9928 21.1381 15.8652 21.4173 15.6174 21.6501L13.0051 24.1273C12.2795 24.8154 11.9036 25.6542 11.8773 26.6438C11.8511 27.6334 12.182 28.491 12.8701 29.2167C13.5582 29.9423 14.397 30.3182 15.3866 30.3445C16.3762 30.3707 17.2338 30.0398 17.9595 29.3517L20.5717 26.8746C20.8184 26.6406 21.1046 26.5279 21.4303 26.5366C21.756 26.5452 22.0353 26.6729 22.2681 26.9196C22.501 27.1663 22.6136 27.4525 22.6061 27.7782C22.5986 28.104 22.4709 28.3832 22.2231 28.616L19.6109 31.0932ZM18.0495 25.9588C17.8028 26.1928 17.5169 26.3051 17.1917 26.2959C16.8666 26.2867 16.587 26.1594 16.353 25.9138C16.119 25.6682 16.0067 25.3823 16.0159 25.056C16.0251 24.7297 16.1525 24.4502 16.3981 24.2173L21.6225 19.263C21.8692 19.029 22.1554 18.9164 22.4811 18.925C22.8069 18.9337 23.0861 19.0613 23.3189 19.308C23.5518 19.5547 23.6644 19.8409 23.6569 20.1667C23.6494 20.4924 23.5217 20.7717 23.2739 21.0045L18.0495 25.9588ZM25.7061 25.3132C25.4594 25.5471 25.1734 25.6595 24.8483 25.6503C24.5232 25.6411 24.2436 25.5137 24.0096 25.2681C23.7756 25.0226 23.6632 24.7366 23.6725 24.4104C23.6817 24.0841 23.8091 23.8045 24.0546 23.5717L26.6668 21.0945C27.3925 20.4064 27.7684 19.5676 27.7947 18.578C27.8209 17.5884 27.49 16.7308 26.8019 16.0051C26.1138 15.2795 25.275 14.9036 24.2853 14.8773C23.2957 14.8511 22.4381 15.182 21.7125 15.8701L19.1003 18.3472C18.8536 18.5812 18.5677 18.6936 18.2425 18.6844C17.9174 18.6752 17.6378 18.5478 17.4038 18.3022C17.1699 18.0566 17.0575 17.7707 17.0667 17.4444C17.0759 17.1182 17.2033 16.8386 17.4489 16.6058L20.0611 14.1286C21.2656 12.9864 22.6952 12.4372 24.3498 12.4811C26.0044 12.525 27.4023 13.1492 28.5434 14.3537C29.6845 15.5582 30.2337 16.9878 30.1909 18.6424C30.1481 20.297 29.5239 21.6949 28.3183 22.836L25.7061 25.3132Z" fill="#00B3FF"/>
</svg>
