<svg height="500" width="920" xmlns="http://www.w3.org/2000/svg">
<title>Your Diagram Title</title>
<!-- Generated with SankeyMATIC: 3/8/2025, 6:51:37 PM -->
<g transform="translate(64.52534,1)">
<g id="sankey_flows">
<path id="flow0" d="M12 168.16028v27.023L49.66213 194.78659v-27.023z" fill="#4e79a7" stroke-width="0.5" stroke="#4e79a7" opacity="0.5"><title>BTC NODE → VM: 1.0</title></path>
<path id="flow1" d="M12 195.18328v27.023L49.66213 221.80959v-27.023z" fill="#4e79a7" stroke-width="0.5" stroke="#4e79a7" opacity="0.5"><title>BTC NODE → VM: 1.0</title></path>
<path id="flow2" d="M12 222.20628v27.023L49.66213 248.83259v-27.023z" fill="#4e79a7" stroke-width="0.5" stroke="#4e79a7" opacity="0.5"><title>BTC NODE → VM: 1.0</title></path>
<path id="flow3" d="M12 249.22928v27.023L49.66213 275.85559v-27.023z" fill="#4e79a7" stroke-width="0.5" stroke="#4e79a7" opacity="0.5"><title>BTC NODE → VM: 1.0</title></path>
<path id="flow4" d="M61.66213 167.76359v27.023L129.55935 194.67341v-27.023z" fill="#f28e2c" stroke-width="0.5" stroke="#f28e2c" opacity="0.5"><title>VM → CHECKER: 1.0</title></path>
<path id="flow5" d="M61.66213 194.78659v27.023L129.55935 221.69641v-27.023z" fill="#f28e2c" stroke-width="0.5" stroke="#f28e2c" opacity="0.5"><title>VM → CHECKER: 1.0</title></path>
<path id="flow6" d="M61.66213 221.80959v27.023L129.55935 248.71941v-27.023z" fill="#f28e2c" stroke-width="0.5" stroke="#f28e2c" opacity="0.5"><title>VM → CHECKER: 1.0</title></path>
<path id="flow7" d="M61.66213 248.83259v27.023L129.55935 275.74241v-27.023z" fill="#f28e2c" stroke-width="0.5" stroke="#f28e2c" opacity="0.5"><title>VM → CHECKER: 1.0</title></path>
<path id="flow16" d="M287.23321 231.40515C310.08109 231.40515 310.08109 254.63843 332.92897 254.63843" fill="none" stroke-width="27.023" stroke="#636363" opacity="0.5"><title>FTP → Action: 1.0</title></path>
<path id="flow17" d="M344.92897 254.63843C400.13743 254.63843 400.13743 148.10775 455.34589 148.10775" fill="none" stroke-width="27.023" stroke="#dba135" opacity="0.5"><title>Action → ENV_RICH: 1.0</title></path>
<path id="flow18" d="M344.92897 281.66143C593.20182 281.66143 593.20182 290.40796 841.47466 290.40796" fill="none" stroke-width="27.023" stroke="#dba135" opacity="0.5"><title>Action → Latest_Bitcoin_Addresses.tsv.gz: 1.0</title></path>
<path id="flow19" d="M467.34589 148.10775C654.41028 148.10775 654.41028 79.20399 841.47466 79.20399" fill="none" stroke-width="27.023" stroke="#52b84d" opacity="0.5"><title>ENV_RICH → Latest_Rich_Bitcoin_Addresses.txt.gz: 1.0</title></path>
<path id="flow20" d="M467.34589 202.15375C654.41028 202.15375 654.41028 179 841.47466 179" fill="none" stroke-width="27.023" stroke="#52b84d" opacity="0.5"><title>ENV_RICH → Latest_Rich_Bitcoin_P2PKH.txt.gz: 1.0</title></path>
<path id="flow21" d="M467.34589 215.66525v27.023L841.47466 243.55757v-27.023z" fill="#52b84d" stroke-width="0.5" stroke="#52b84d" opacity="0.5"><title>ENV_RICH → Latest_Rich_Bitcoin_P2SH.txt.gz: 1.0</title></path>
<path id="flow22" d="M467.34589 175.13075C654.41028 175.13075 654.41028 125.55007 841.47466 125.55007" fill="none" stroke-width="27.023" stroke="#52b84d" opacity="0.5"><title>ENV_RICH → Latest_Rich_Bitcoin_BECH32.txt.gz: 1.0</title></path>
<path id="flow12" d="M227.50359 165.74171C251.3684 165.74171 251.3684 220.59595 275.23321 220.59595" fill="none" stroke-width="5.4046" stroke="#76b7b2" opacity="0.5"><title>WORKER → FTP: 0.2</title></path>
<path id="flow13" d="M227.50359 171.14631C251.3684 171.14631 251.3684 226.00055 275.23321 226.00055" fill="none" stroke-width="5.4046" stroke="#76b7b2" opacity="0.5"><title>WORKER → FTP: 0.2</title></path>
<path id="flow14" d="M227.50359 176.55091C251.3684 176.55091 251.3684 231.40515 275.23321 231.40515" fill="none" stroke-width="5.4046" stroke="#76b7b2" opacity="0.5"><title>WORKER → FTP: 0.2</title></path>
<path id="flow15" d="M227.50359 181.95551C251.3684 181.95551 251.3684 236.80975 275.23321 236.80975" fill="none" stroke-width="5.4046" stroke="#76b7b2" opacity="0.5"><title>WORKER → FTP: 0.2</title></path>
<path id="flow8" d="M141.55935 169.00156C178.53147 169.00156 178.53147 164.39056 215.50359 164.39056" fill="none" stroke-width="2.7023" stroke="#e15759" opacity="0.5"><title>CHECKER → WORKER: 0.1</title></path>
<path id="flow9" d="M141.55935 171.70386C178.53147 171.70386 178.53147 167.09286 215.50359 167.09286" fill="none" stroke-width="2.7023" stroke="#e15759" opacity="0.5"><title>CHECKER → WORKER: 0.1</title></path>
<path id="flow10" d="M141.55935 174.40616C178.53147 174.40616 178.53147 169.79516 215.50359 169.79516" fill="none" stroke-width="2.7023" stroke="#e15759" opacity="0.5"><title>CHECKER → WORKER: 0.1</title></path>
<path id="flow11" d="M141.55935 177.10846C178.53147 177.10846 178.53147 172.49746 215.50359 172.49746" fill="none" stroke-width="2.7023" stroke="#e15759" opacity="0.5"><title>CHECKER → WORKER: 0.1</title></path>
</g>
<g id="sankey_nodes">
<g class="node">
<rect id="r0" class="for_r0" x="0" y="170.99747" height="108.092" width="12" fill="#4e79a7" fill-opacity="0.9" transform="translate(0,-2.83719)"><title>BTC NODE:
4.0</title></rect>
</g>
<g class="node">
<rect id="r1" class="for_r1" x="120.21067" y="170.98167" height="108.092" width="12" fill="#f28e2c" fill-opacity="0.9" transform="translate(-70.54853,-3.21809)"><title>VM:
4.0</title></rect>
</g>
<g class="node">
<rect id="r2" class="for_r2" x="240.42133" y="170.86849" height="108.092" width="12" fill="#e15759" fill-opacity="0.9" transform="translate(-110.86198,-3.21809)"><title>CHECKER:
4.0</title></rect>
</g>
<g class="node">
<rect id="r3" class="for_r3" x="360.632" y="168.88854" height="21.6184" width="12" fill="#76b7b2" fill-opacity="0.9" transform="translate(-145.12841,-5.84913)"><title>WORKER:
0.8</title></rect>
</g>
<g class="node">
<rect id="r4" class="for_r4" x="480.84267" y="167.89365" height="27.023" width="12" fill="#636363" fill-opacity="0.9" transform="translate(-205.60945,50)"><title>FTP:
1.0</title></rect>
</g>
<g class="node">
<rect id="r5" class="for_r5" x="601.05333" y="167.12695" height="54.046" width="12" fill="#dba135" fill-opacity="0.9" transform="translate(-268.12436,73.99998)"><title>Action:
2.0</title></rect>
</g>
<g class="node">
<rect id="r6" class="for_r6" x="841.47466" y="120.89647" height="27.023" width="12" fill="#69a2d1" fill-opacity="0.9" transform="translate(0,155.99998)"><title>Latest_Bitcoin_Addresses.tsv.gz:
1.0</title></rect>
</g>
<g class="node">
<rect id="r7" class="for_r7" x="841.47466" y="177.69249" height="27.023" width="12" fill="#69a2d1" fill-opacity="0.9" transform="translate(0,-112)"><title>Latest_Rich_Bitcoin_Addresses.txt.gz:
1.0</title></rect>
</g>
<g class="node">
<rect id="r8" class="for_r8" x="841.47466" y="234.4885" height="27.023" width="12" fill="#69a2d1" fill-opacity="0.9" transform="translate(0,-69)"><title>Latest_Rich_Bitcoin_P2PKH.txt.gz:
1.0</title></rect>
</g>
<g class="node">
<rect id="r9" class="for_r9" x="841.47466" y="291.28451" height="27.023" width="12" fill="#69a2d1" fill-opacity="0.9" transform="translate(0,-74.74994)"><title>Latest_Rich_Bitcoin_P2SH.txt.gz:
1.0</title></rect>
</g>
<g class="node">
<rect id="r10" class="for_r10" x="841.47466" y="348.08052" height="27.023" width="12" fill="#69a2d1" fill-opacity="0.9" transform="translate(0,-236.04196)"><title>Latest_Rich_Bitcoin_BECH32.txt.gz:
1.0</title></rect>
</g>
<g class="node">
<rect id="r11" class="for_r11" x="721.264" y="216.64988" height="108.092" width="12" fill="#52b84d" fill-opacity="0.9" transform="translate(-265.91811,-82.05363)"><title>ENV_RICH:
4.0</title></rect>
</g>
</g>
<g id="sankey_labels" font-family="monospace" font-size="16px" fill="#3d652c">
<rect id="label0_bg" class="for_r0" x="-61.52533" y="215.74347" width="60.29334" height="18.84" rx="4" fill="#fff" fill-opacity="0.75" stroke="none" stroke-width="0" stroke-opacity="0" transform="translate(0,-2.83719)"></rect>
<text id="label0" class="for_r0" text-anchor="end" x="-4.312" y="225.04347" font-weight="400" font-size="12.32px" dy="4.34" transform="translate(0,-2.83719)">BTC NODE</text>
<rect id="label1_bg" class="for_r1" x="99.28533" y="215.72766" width="19.69333" height="18.84" rx="4" fill="#fff" fill-opacity="0.75" stroke="none" stroke-width="0" stroke-opacity="0" transform="translate(-70.54853,-3.21809)"></rect>
<text id="label1" class="for_r1" text-anchor="end" x="115.89867" y="225.02767" font-weight="400" font-size="12.32px" dy="4.34" transform="translate(-70.54853,-3.21809)">VM</text>
<rect id="label2_bg" class="for_r2" x="185.66266" y="215.61449" width="53.52667" height="18.84" rx="4" fill="#fff" fill-opacity="0.75" stroke="none" stroke-width="0" stroke-opacity="0" transform="translate(-110.86198,-3.21809)"></rect>
<text id="label2" class="for_r2" text-anchor="end" x="236.10933" y="224.91449" font-weight="400" font-size="12.32px" dy="4.34" transform="translate(-110.86198,-3.21809)">CHECKER</text>
<rect id="label3_bg" class="for_r3" x="312.64" y="170.39773" width="46.76" height="18.84" rx="4" fill="#fff" fill-opacity="0.75" stroke="none" stroke-width="0" stroke-opacity="0" transform="translate(-145.12841,-5.84913)"></rect>
<text id="label3" class="for_r3" text-anchor="end" x="356.32" y="179.69774" font-weight="400" font-size="12.32px" dy="4.34" transform="translate(-145.12841,-5.84913)">WORKER</text>
<rect id="label4_bg" class="for_r4" x="453.15068" y="172.10515" width="26.46" height="18.84" rx="4" fill="#fff" fill-opacity="0.75" stroke="none" stroke-width="0" stroke-opacity="0" transform="translate(-205.60945,50)"></rect>
<text id="label4" class="for_r4" text-anchor="end" x="476.53067" y="181.40515" font-weight="400" font-size="12.32px" dy="4.34" transform="translate(-205.60945,50)">FTP</text>
<rect id="label5_bg" class="for_r5" x="553.06136" y="184.84994" width="46.76" height="18.84" rx="4" fill="#fff" fill-opacity="0.75" stroke="none" stroke-width="0" stroke-opacity="0" transform="translate(-268.12436,73.99998)"></rect>
<text id="label5" class="for_r5" text-anchor="end" x="596.74133" y="194.14995" font-weight="400" font-size="12.32px" dy="4.34" transform="translate(-268.12436,73.99998)">Action</text>
<rect id="label6_bg" class="for_r6" x="624.316" y="125.10797" width="215.92666" height="18.84" rx="4" fill="#fff" fill-opacity="0.75" stroke="none" stroke-width="0" stroke-opacity="0" transform="translate(0,155.99998)"></rect>
<text id="label6" class="for_r6" text-anchor="end" x="837.16266" y="134.40797" font-weight="400" font-size="12.32px" dy="4.34" transform="translate(0,155.99998)">Latest_Bitcoin_Addresses.tsv.gz</text>
<rect id="label7_bg" class="for_r7" x="590.48268" y="181.90399" width="249.76001" height="18.84" rx="4" fill="#fff" fill-opacity="0.75" stroke="none" stroke-width="0" stroke-opacity="0" transform="translate(0,-112)"></rect>
<text id="label7" class="for_r7" text-anchor="end" x="837.16266" y="191.20399" font-weight="400" font-size="12.32px" dy="4.34" transform="translate(0,-112)">Latest_Rich_Bitcoin_Addresses.txt.gz</text>
<rect id="label8_bg" class="for_r8" x="617.54933" y="238.7" width="222.69334" height="18.84" rx="4" fill="#fff" fill-opacity="0.75" stroke="none" stroke-width="0" stroke-opacity="0" transform="translate(0,-69)"></rect>
<text id="label8" class="for_r8" text-anchor="end" x="837.16266" y="248" font-weight="400" font-size="12.32px" dy="4.34" transform="translate(0,-69)">Latest_Rich_Bitcoin_P2PKH.txt.gz</text>
<rect id="label9_bg" class="for_r9" x="624.316" y="295.49602" width="215.92666" height="18.84" rx="4" fill="#fff" fill-opacity="0.75" stroke="none" stroke-width="0" stroke-opacity="0" transform="translate(0,-74.74994)"></rect>
<text id="label9" class="for_r9" text-anchor="end" x="837.16266" y="304.79601" font-weight="400" font-size="12.32px" dy="4.34" transform="translate(0,-74.74994)">Latest_Rich_Bitcoin_P2SH.txt.gz</text>
<rect id="label10_bg" class="for_r10" x="610.78267" y="352.29201" width="229.46" height="18.84" rx="4" fill="#fff" fill-opacity="0.75" stroke="none" stroke-width="0" stroke-opacity="0" transform="translate(0,-236.04196)"></rect>
<text id="label10" class="for_r10" text-anchor="end" x="837.16266" y="361.59202" font-weight="400" font-size="12.32px" dy="4.34" transform="translate(0,-236.04196)">Latest_Rich_Bitcoin_BECH32.txt.gz</text>
<rect id="label11_bg" class="for_r11" x="659.73866" y="261.39589" width="60.29334" height="18.84" rx="4" fill="#fff" fill-opacity="0.75" stroke="none" stroke-width="0" stroke-opacity="0" transform="translate(-265.91811,-82.05363)"></rect>
<text id="label11" class="for_r11" text-anchor="end" x="716.952" y="270.69588" font-weight="400" font-size="12.32px" dy="4.34" transform="translate(-265.91811,-82.05363)">ENV_RICH</text>
</g>
</g></svg>