<svg width="450" height="100" viewBox="0 0 450 100" fill="none" xmlns="http://www.w3.org/2000/svg">
<g clip-path="url(#clip0_537_10)">
<rect width="450" height="100" fill="url(#paint0_radial_537_10)"/>
<rect x="0.5" y="0.5" width="449" height="99" fill="url(#paint1_radial_537_10)" fill-opacity="0.2" style="mix-blend-mode:soft-light"/>
<rect x="0.5" y="0.5" width="449" height="99" stroke="#ED4F16"/>
<path d="M138.982 32.0154C138.982 33.0738 138.703 34.0092 138.145 34.8215C137.595 35.6338 136.803 36.2697 135.769 36.7292C134.735 37.1887 133.492 37.4185 132.04 37.4185C130.432 37.4185 129.082 37.1846 127.991 36.7169C126.908 36.241 126.009 35.6544 125.295 34.9569L127.338 32.6923C127.97 33.2421 128.668 33.6687 129.431 33.9723C130.194 34.2677 131.031 34.4154 131.942 34.4154C132.787 34.4154 133.472 34.2349 133.997 33.8738C134.522 33.5046 134.785 32.9877 134.785 32.3231C134.785 31.6995 134.563 31.2113 134.12 30.8585C133.685 30.5056 132.873 30.1487 131.683 29.7877C129.689 29.1805 128.27 28.4667 127.425 27.6462C126.588 26.8174 126.169 25.7549 126.169 24.4585C126.169 23.4164 126.456 22.5262 127.031 21.7877C127.613 21.0492 128.393 20.4872 129.369 20.1015C130.346 19.7077 131.421 19.5108 132.594 19.5108C133.915 19.5108 135.08 19.7036 136.089 20.0892C137.098 20.4667 137.972 21.0082 138.711 21.7138L136.803 23.9046C136.229 23.4205 135.609 23.0636 134.945 22.8338C134.28 22.5959 133.603 22.4769 132.914 22.4769C132.143 22.4769 131.523 22.6205 131.055 22.9077C130.588 23.1867 130.354 23.601 130.354 24.1508C130.354 24.5118 130.456 24.8154 130.662 25.0615C130.867 25.3077 131.224 25.5415 131.732 25.7631C132.241 25.9764 132.947 26.2267 133.849 26.5138C134.924 26.8421 135.843 27.2359 136.606 27.6954C137.377 28.1467 137.964 28.7169 138.366 29.4062C138.776 30.0954 138.982 30.9651 138.982 32.0154ZM148.726 23.4985C149.866 23.4985 150.785 23.7815 151.483 24.3477C152.18 24.9138 152.689 25.7138 153.009 26.7477C153.337 27.7815 153.501 29.0082 153.501 30.4277C153.501 31.7733 153.304 32.9754 152.91 34.0338C152.516 35.0841 151.946 35.9128 151.199 36.52C150.453 37.119 149.546 37.4185 148.479 37.4185C147.208 37.4185 146.174 36.9631 145.378 36.0523V42.0462L141.489 42.4523V23.9292H144.935L145.107 25.3938C145.64 24.7128 146.223 24.2287 146.855 23.9415C147.487 23.6462 148.11 23.4985 148.726 23.4985ZM147.519 26.3662C147.068 26.3662 146.67 26.5015 146.326 26.7723C145.981 27.0431 145.665 27.4123 145.378 27.88V33.3938C145.649 33.7959 145.932 34.0913 146.227 34.28C146.531 34.4687 146.888 34.5631 147.298 34.5631C147.987 34.5631 148.525 34.2513 148.91 33.6277C149.296 32.9959 149.489 31.9456 149.489 30.4769C149.489 29.3938 149.411 28.5569 149.255 27.9662C149.099 27.3672 148.873 26.9528 148.578 26.7231C148.283 26.4851 147.93 26.3662 147.519 26.3662ZM161.916 23.4985C163.262 23.4985 164.406 23.7856 165.35 24.36C166.293 24.9344 167.015 25.7426 167.516 26.7846C168.016 27.8185 168.267 29.0328 168.267 30.4277C168.267 32.6103 167.709 34.321 166.593 35.56C165.477 36.799 163.918 37.4185 161.916 37.4185C159.914 37.4185 158.355 36.8072 157.239 35.5846C156.123 34.3621 155.565 32.6513 155.565 30.4523C155.565 29.0656 155.815 27.8513 156.316 26.8092C156.825 25.7672 157.551 24.9549 158.494 24.3723C159.446 23.7897 160.587 23.4985 161.916 23.4985ZM161.916 26.3662C161.12 26.3662 160.529 26.6944 160.144 27.3508C159.766 27.999 159.577 29.0328 159.577 30.4523C159.577 31.8964 159.766 32.9426 160.144 33.5908C160.529 34.239 161.12 34.5631 161.916 34.5631C162.712 34.5631 163.298 34.239 163.676 33.5908C164.062 32.9426 164.254 31.8882 164.254 30.4277C164.254 29.0164 164.062 27.9867 163.676 27.3385C163.298 26.6903 162.712 26.3662 161.916 26.3662ZM171.02 37V23.9292H174.417L174.688 25.4431C175.27 24.7867 175.886 24.2985 176.534 23.9785C177.182 23.6585 177.92 23.4985 178.749 23.4985C179.865 23.4985 180.743 23.839 181.383 24.52C182.023 25.201 182.343 26.161 182.343 27.4V37H178.454V28.52C178.454 27.7159 178.364 27.1579 178.183 26.8462C178.011 26.5262 177.683 26.3662 177.198 26.3662C176.788 26.3662 176.394 26.4974 176.017 26.76C175.648 27.0226 175.278 27.3877 174.909 27.8554V37H171.02ZM191.029 34.6369C191.677 34.6369 192.198 34.5344 192.592 34.3292C192.994 34.1241 193.195 33.8164 193.195 33.4062C193.195 33.1272 193.117 32.8933 192.961 32.7046C192.805 32.5159 192.506 32.3354 192.062 32.1631C191.619 31.9908 190.963 31.7856 190.093 31.5477C188.895 31.2277 187.919 30.7682 187.164 30.1692C186.417 29.5703 186.044 28.6923 186.044 27.5354C186.044 26.3703 186.528 25.4062 187.496 24.6431C188.473 23.88 189.88 23.4985 191.718 23.4985C192.883 23.4985 193.896 23.6503 194.758 23.9538C195.628 24.2492 196.378 24.6267 197.01 25.0862L195.459 27.3754C194.918 27.039 194.335 26.7723 193.712 26.5754C193.088 26.3703 192.46 26.2677 191.829 26.2677C190.581 26.2677 189.958 26.6041 189.958 27.2769C189.958 27.4985 190.036 27.6913 190.192 27.8554C190.356 28.0113 190.659 28.1754 191.102 28.3477C191.546 28.5118 192.194 28.7169 193.047 28.9631C193.892 29.201 194.627 29.4759 195.25 29.7877C195.882 30.0995 196.37 30.5179 196.715 31.0431C197.059 31.56 197.232 32.2451 197.232 33.0985C197.232 34.0503 196.949 34.8503 196.382 35.4985C195.816 36.1385 195.066 36.6185 194.13 36.9385C193.195 37.2585 192.169 37.4185 191.053 37.4185C189.79 37.4185 188.674 37.2379 187.706 36.8769C186.737 36.5159 185.913 36.04 185.232 35.4492L187.189 33.2585C187.697 33.6523 188.272 33.9805 188.912 34.2431C189.56 34.5056 190.266 34.6369 191.029 34.6369ZM206.213 23.4985C207.558 23.4985 208.703 23.7856 209.647 24.36C210.59 24.9344 211.312 25.7426 211.813 26.7846C212.313 27.8185 212.564 29.0328 212.564 30.4277C212.564 32.6103 212.006 34.321 210.89 35.56C209.774 36.799 208.215 37.4185 206.213 37.4185C204.211 37.4185 202.652 36.8072 201.536 35.5846C200.42 34.3621 199.862 32.6513 199.862 30.4523C199.862 29.0656 200.112 27.8513 200.613 26.8092C201.121 25.7672 201.848 24.9549 202.791 24.3723C203.743 23.7897 204.884 23.4985 206.213 23.4985ZM206.213 26.3662C205.417 26.3662 204.826 26.6944 204.44 27.3508C204.063 27.999 203.874 29.0328 203.874 30.4523C203.874 31.8964 204.063 32.9426 204.44 33.5908C204.826 34.239 205.417 34.5631 206.213 34.5631C207.009 34.5631 207.595 34.239 207.973 33.5908C208.358 32.9426 208.551 31.8882 208.551 30.4277C208.551 29.0164 208.358 27.9867 207.973 27.3385C207.595 26.6903 207.009 26.3662 206.213 26.3662ZM215.44 37V34.3908H217.163V26.5138H215.44V23.9292H220.129L220.843 26.8708C221.311 25.7467 221.906 24.9097 222.628 24.36C223.358 23.8103 224.248 23.5354 225.298 23.5354C225.741 23.5354 226.135 23.5723 226.48 23.6462C226.825 23.7118 227.149 23.8062 227.452 23.9292L226.726 29.3938H224.289V26.9815C223.551 27.1128 222.902 27.5149 222.345 28.1877C221.787 28.8523 221.356 29.6728 221.052 30.6492V34.3908H223.637V37H215.44ZM233.455 31.5969C233.586 32.6636 233.935 33.4308 234.501 33.8985C235.067 34.3579 235.765 34.5877 236.593 34.5877C237.192 34.5877 237.771 34.4892 238.329 34.2923C238.887 34.0954 239.424 33.8328 239.941 33.5046L241.504 35.6215C240.889 36.1467 240.142 36.5774 239.264 36.9138C238.394 37.2503 237.401 37.4185 236.286 37.4185C234.792 37.4185 233.541 37.1231 232.532 36.5323C231.522 35.9333 230.763 35.1128 230.255 34.0708C229.746 33.0287 229.492 31.8308 229.492 30.4769C229.492 29.1887 229.738 28.0195 230.23 26.9692C230.722 25.9108 231.44 25.0697 232.384 24.4462C233.336 23.8144 234.497 23.4985 235.867 23.4985C237.114 23.4985 238.193 23.7651 239.104 24.2985C240.023 24.8318 240.733 25.599 241.233 26.6C241.742 27.601 241.996 28.8031 241.996 30.2062C241.996 30.4277 241.988 30.6656 241.972 30.92C241.963 31.1744 241.947 31.4 241.922 31.5969H233.455ZM235.867 26.1077C235.17 26.1077 234.608 26.3579 234.181 26.8585C233.754 27.359 233.496 28.159 233.406 29.2585H238.206C238.197 28.3067 238.013 27.5436 237.652 26.9692C237.291 26.3949 236.696 26.1077 235.867 26.1077ZM252.282 18.3292L256.171 18.7354V37H252.725L252.528 35.56C252.167 36.0687 251.687 36.5077 251.088 36.8769C250.489 37.2379 249.763 37.4185 248.91 37.4185C247.827 37.4185 246.928 37.1272 246.214 36.5446C245.509 35.9621 244.979 35.1497 244.627 34.1077C244.282 33.0574 244.11 31.8308 244.11 30.4277C244.11 29.0821 244.319 27.8882 244.737 26.8462C245.156 25.8041 245.755 24.9877 246.534 24.3969C247.314 23.7979 248.241 23.4985 249.316 23.4985C250.489 23.4985 251.478 23.9005 252.282 24.7046V18.3292ZM250.362 26.3415C249.689 26.3415 249.148 26.6615 248.737 27.3015C248.327 27.9333 248.122 28.9836 248.122 30.4523C248.122 31.5272 248.208 32.3641 248.38 32.9631C248.553 33.5538 248.791 33.9682 249.094 34.2062C249.398 34.4441 249.747 34.5631 250.14 34.5631C250.575 34.5631 250.969 34.4277 251.322 34.1569C251.683 33.8862 252.003 33.5169 252.282 33.0492V27.4123C252.011 27.0759 251.724 26.8133 251.42 26.6246C251.117 26.4359 250.764 26.3415 250.362 26.3415Z" fill="white" fill-opacity="0.38"/>
<path d="M138.953 48.4646C140.824 48.4646 142.409 48.7115 143.708 49.2051C145.007 49.6858 146.209 50.3809 147.313 51.2903L144.604 54.5056C143.825 53.8691 142.98 53.3819 142.071 53.0441C141.161 52.6933 140.187 52.5179 139.148 52.5179C137.888 52.5179 136.731 52.8492 135.679 53.5118C134.64 54.1744 133.808 55.2397 133.185 56.7077C132.561 58.1627 132.249 60.0855 132.249 62.4759C132.249 64.8274 132.548 66.7306 133.146 68.1856C133.756 69.6277 134.581 70.6865 135.621 71.3621C136.673 72.0376 137.862 72.3754 139.187 72.3754C140.59 72.3754 141.752 72.135 142.675 71.6544C143.61 71.1607 144.442 70.615 145.169 70.0174L147.683 73.1938C146.735 74.1292 145.546 74.9282 144.117 75.5908C142.701 76.2533 140.979 76.5846 138.953 76.5846C136.601 76.5846 134.503 76.052 132.658 74.9867C130.814 73.9084 129.365 72.3234 128.313 70.2318C127.261 68.1272 126.734 65.5419 126.734 62.4759C126.734 59.4619 127.274 56.9156 128.352 54.8369C129.443 52.7453 130.911 51.1603 132.756 50.0821C134.614 49.0038 136.679 48.4646 138.953 48.4646ZM160.091 54.7785C162.143 54.7785 163.884 55.2267 165.313 56.1231C166.742 57.0195 167.827 58.2862 168.568 59.9231C169.321 61.547 169.698 63.4503 169.698 65.6328C169.698 68.9846 168.86 71.6479 167.184 73.6226C165.508 75.5973 163.137 76.5846 160.071 76.5846C157.005 76.5846 154.634 75.6168 152.958 73.681C151.282 71.7323 150.445 69.0626 150.445 65.6718C150.445 63.5152 150.821 61.6185 151.575 59.9815C152.328 58.3446 153.42 57.0715 154.849 56.1621C156.291 55.2397 158.038 54.7785 160.091 54.7785ZM160.091 58.6564C158.649 58.6564 157.57 59.2215 156.856 60.3518C156.154 61.4821 155.804 63.2554 155.804 65.6718C155.804 68.1142 156.154 69.9005 156.856 71.0308C157.557 72.148 158.629 72.7067 160.071 72.7067C161.513 72.7067 162.585 72.148 163.287 71.0308C163.988 69.9005 164.339 68.1012 164.339 65.6328C164.339 63.2294 163.988 61.4691 163.287 60.3518C162.585 59.2215 161.52 58.6564 160.091 58.6564ZM183.431 44.9569C184.366 44.9569 185.133 45.2492 185.73 45.8338C186.328 46.4185 186.627 47.146 186.627 48.0164C186.627 48.8868 186.328 49.6209 185.73 50.2185C185.133 50.8031 184.366 51.0954 183.431 51.0954C182.482 51.0954 181.709 50.8031 181.112 50.2185C180.514 49.6209 180.215 48.8868 180.215 48.0164C180.215 47.146 180.514 46.4185 181.112 45.8338C181.709 45.2492 182.482 44.9569 183.431 44.9569ZM186.763 55.3631V72.3559H192.2V76H175.577V72.3559H181.618V59.0072H175.772V55.3631H186.763ZM198.274 76V55.3631H202.756L203.126 57.9159C204.906 55.8243 207.089 54.7785 209.674 54.7785C211.519 54.7785 212.929 55.3176 213.903 56.3959C214.89 57.4612 215.384 58.9617 215.384 60.8974V76H210.239V62.9046C210.239 61.3456 210.077 60.2414 209.752 59.5918C209.44 58.9422 208.765 58.6174 207.725 58.6174C206.881 58.6174 206.095 58.8838 205.367 59.4164C204.64 59.9491 203.99 60.5986 203.419 61.3651V76H198.274ZM236.775 59.2215V66.12H239.737V70.0369H236.775V76H231.825L231.786 70.0369H220.62V66.5292L228.259 48.4646L232.624 50.121L225.96 66.12H231.825L232.429 59.2215H236.775ZM250.177 46.6328V57.6821C251.034 56.7077 251.995 55.9802 253.061 55.4995C254.139 55.0188 255.263 54.7785 256.432 54.7785C258.329 54.7785 259.751 55.3176 260.7 56.3959C261.661 57.4612 262.142 58.9617 262.142 60.8974V76H256.997V62.0472C256.997 60.8 256.802 59.9166 256.412 59.3969C256.036 58.8773 255.386 58.6174 254.464 58.6174C253.632 58.6174 252.853 58.8968 252.125 59.4554C251.398 60.001 250.748 60.6701 250.177 61.4626V76H245.032V47.1395L250.177 46.6328ZM273.555 55.3631V69.6667C273.555 70.7839 273.776 71.5699 274.218 72.0246C274.66 72.4793 275.303 72.7067 276.147 72.7067C276.953 72.7067 277.739 72.4663 278.505 71.9856C279.272 71.492 279.895 70.8684 280.376 70.1149V55.3631H285.521V76H281.039L280.766 73.4667C280.025 74.48 279.077 75.253 277.921 75.7856C276.764 76.3183 275.569 76.5846 274.335 76.5846C272.347 76.5846 270.86 76.026 269.872 74.9087C268.898 73.7785 268.411 72.239 268.411 70.2903V55.3631H273.555ZM296.934 57.6821C297.623 56.7856 298.435 56.0776 299.37 55.5579C300.319 55.0383 301.338 54.7785 302.43 54.7785C305.119 54.7785 307.068 55.7658 308.276 57.7405C309.484 59.7022 310.088 62.333 310.088 65.6328C310.088 67.7504 309.776 69.6342 309.153 71.2841C308.529 72.934 307.6 74.2332 306.366 75.1815C305.145 76.1169 303.644 76.5846 301.865 76.5846C299.617 76.5846 297.857 75.7337 296.584 74.0318L296.35 76H291.79V47.12L296.934 46.5744V57.6821ZM300.54 72.7456C301.852 72.7456 302.878 72.187 303.618 71.0697C304.359 69.9525 304.729 68.1597 304.729 65.6913C304.729 63.08 304.391 61.2547 303.716 60.2154C303.04 59.1631 302.111 58.6369 300.929 58.6369C300.072 58.6369 299.312 58.8968 298.649 59.4164C298 59.9361 297.428 60.5791 296.934 61.3456V70.5826C297.376 71.2711 297.896 71.8038 298.493 72.1805C299.091 72.5573 299.773 72.7456 300.54 72.7456ZM319.69 72.5508C319.69 71.4595 320.079 70.5176 320.859 69.7251C321.638 68.9326 322.587 68.5364 323.704 68.5364C324.834 68.5364 325.789 68.9326 326.569 69.7251C327.348 70.5176 327.738 71.4595 327.738 72.5508C327.738 73.655 327.348 74.6034 326.569 75.3959C325.789 76.1884 324.834 76.5846 323.704 76.5846C322.587 76.5846 321.638 76.1884 320.859 75.3959C320.079 74.6034 319.69 73.655 319.69 72.5508ZM348.934 72.4533C349.844 72.4533 350.695 72.2844 351.487 71.9467C352.28 71.6089 353.053 71.1802 353.806 70.6605L356.145 73.9538C355.235 74.7203 354.137 75.3504 352.851 75.8441C351.565 76.3378 350.188 76.5846 348.72 76.5846C346.55 76.5846 344.693 76.1364 343.147 75.24C341.614 74.3436 340.438 73.0834 339.619 71.4595C338.801 69.8356 338.392 67.9518 338.392 65.8082C338.392 63.6906 338.807 61.8003 339.639 60.1374C340.483 58.4745 341.679 57.1689 343.225 56.2205C344.783 55.2591 346.641 54.7785 348.798 54.7785C350.279 54.7785 351.617 54.9928 352.812 55.4215C354.02 55.8373 355.125 56.4609 356.125 57.2923L353.845 60.4492C353.079 59.9296 352.286 59.5268 351.468 59.241C350.649 58.9552 349.811 58.8123 348.954 58.8123C347.434 58.8123 346.193 59.3644 345.232 60.4687C344.283 61.56 343.809 63.3398 343.809 65.8082C343.809 68.2506 344.296 69.972 345.271 70.9723C346.245 71.9597 347.466 72.4533 348.934 72.4533ZM370.501 54.7785C372.554 54.7785 374.294 55.2267 375.723 56.1231C377.152 57.0195 378.237 58.2862 378.978 59.9231C379.731 61.547 380.108 63.4503 380.108 65.6328C380.108 68.9846 379.27 71.6479 377.594 73.6226C375.918 75.5973 373.547 76.5846 370.481 76.5846C367.415 76.5846 365.044 75.6168 363.369 73.681C361.693 71.7323 360.855 69.0626 360.855 65.6718C360.855 63.5152 361.231 61.6185 361.985 59.9815C362.738 58.3446 363.83 57.0715 365.259 56.1621C366.701 55.2397 368.448 54.7785 370.501 54.7785ZM370.501 58.6564C369.059 58.6564 367.981 59.2215 367.266 60.3518C366.564 61.4821 366.214 63.2554 366.214 65.6718C366.214 68.1142 366.564 69.9005 367.266 71.0308C367.968 72.148 369.039 72.7067 370.481 72.7067C371.923 72.7067 372.995 72.148 373.697 71.0308C374.398 69.9005 374.749 68.1012 374.749 65.6328C374.749 63.2294 374.398 61.4691 373.697 60.3518C372.995 59.2215 371.93 58.6564 370.501 58.6564ZM399.979 54.7785C401.278 54.7785 402.305 55.2137 403.058 56.0841C403.812 56.9415 404.188 58.481 404.188 60.7026V76H399.706V61.3456C399.706 60.4232 399.635 59.7672 399.492 59.3774C399.349 58.9747 399.011 58.7733 398.479 58.7733C398.05 58.7733 397.615 58.9032 397.173 59.1631C396.731 59.4099 396.283 59.8581 395.828 60.5077V76H391.951V61.3456C391.951 60.4232 391.879 59.7672 391.736 59.3774C391.593 58.9747 391.255 58.7733 390.723 58.7733C390.294 58.7733 389.859 58.9032 389.417 59.1631C388.975 59.4099 388.527 59.8581 388.073 60.5077V76H383.532V55.3631H387.371L387.702 57.5067C388.313 56.6622 388.956 55.9997 389.632 55.519C390.307 55.0253 391.119 54.7785 392.067 54.7785C392.847 54.7785 393.535 54.9733 394.133 55.3631C394.744 55.7398 395.179 56.3894 395.439 57.3118C396.036 56.5583 396.699 55.9477 397.426 55.48C398.167 55.0123 399.018 54.7785 399.979 54.7785Z" fill="white" fill-opacity="0.68"/>
<path d="M29.4411 80.0002C28.7832 80.0002 28.1675 79.6768 27.7942 79.1351L16.864 63.2739C16.5244 62.7812 16.4233 62.1623 16.5885 61.5871L23.984 35.8275C24.2301 34.9701 25.0143 34.3794 25.9063 34.3794H39.9447C40.8365 34.3794 41.6206 33.789 41.8669 32.9319L45.3883 20.6804C45.6346 19.8233 46.4187 19.2329 47.3105 19.2329H72.7164C74.0463 19.2329 75.0058 20.5068 74.6387 21.7851L70.8899 34.8362C70.6437 35.6934 69.8596 36.284 68.9677 36.284H43.073C42.1693 36.284 41.3779 36.8901 41.1422 37.7626L35.141 59.9824C34.7983 61.251 35.7514 62.4997 37.0654 62.5039L60.3016 62.5779C61.6283 62.5821 62.5832 63.8533 62.2179 65.1287L58.3729 78.551C58.1272 79.4089 57.3427 80.0002 56.4503 80.0002H29.4411Z" fill="#D36516"/>
<path d="M29.4411 80.0002C28.7832 80.0002 28.1675 79.6768 27.7942 79.1351L16.864 63.2739C16.5244 62.7812 16.4233 62.1623 16.5885 61.5871L23.984 35.8275C24.2301 34.9701 25.0143 34.3794 25.9063 34.3794H39.9447C40.8365 34.3794 41.6206 33.789 41.8669 32.9319L45.3883 20.6804C45.6346 19.8233 46.4187 19.2329 47.3105 19.2329H72.7164C74.0463 19.2329 75.0058 20.5068 74.6387 21.7851L70.8899 34.8362C70.6437 35.6934 69.8596 36.284 68.9677 36.284H43.073C42.1693 36.284 41.3779 36.8901 41.1422 37.7626L35.141 59.9824C34.7983 61.251 35.7514 62.4997 37.0654 62.5039L60.3016 62.5779C61.6283 62.5821 62.5832 63.8533 62.2179 65.1287L58.3729 78.551C58.1272 79.4089 57.3427 80.0002 56.4503 80.0002H29.4411Z" fill="url(#paint2_radial_537_10)" fill-opacity="0.7"/>
<path d="M29.4411 80.0002C28.7832 80.0002 28.1675 79.6768 27.7942 79.1351L16.864 63.2739C16.5244 62.7812 16.4233 62.1623 16.5885 61.5871L23.984 35.8275C24.2301 34.9701 25.0143 34.3794 25.9063 34.3794H39.9447C40.8365 34.3794 41.6206 33.789 41.8669 32.9319L45.3883 20.6804C45.6346 19.8233 46.4187 19.2329 47.3105 19.2329H72.7164C74.0463 19.2329 75.0058 20.5068 74.6387 21.7851L70.8899 34.8362C70.6437 35.6934 69.8596 36.284 68.9677 36.284H43.073C42.1693 36.284 41.3779 36.8901 41.1422 37.7626L35.141 59.9824C34.7983 61.251 35.7514 62.4997 37.0654 62.5039L60.3016 62.5779C61.6283 62.5821 62.5832 63.8533 62.2179 65.1287L58.3729 78.551C58.1272 79.4089 57.3427 80.0002 56.4503 80.0002H29.4411Z" fill="url(#paint3_radial_537_10)"/>
<path d="M95.3464 18C96.6758 18 97.6352 19.273 97.269 20.551L81.0013 77.3183C80.7555 78.1761 79.9711 78.7673 79.0787 78.7673H65.6433C64.3421 78.7673 63.3873 77.5444 63.7031 76.2821L67.5864 60.755C67.9022 59.4926 66.9474 58.2697 65.6462 58.2697H42.607C41.2776 58.2697 40.3182 56.9969 40.6843 55.7189L44.5268 42.305C44.7726 41.4471 45.5571 40.8558 46.4495 40.8558H72.4566C73.3495 40.8558 74.1343 40.2638 74.3796 39.4052L80.081 19.4506C80.3263 18.592 81.111 18 82.004 18H95.3464Z" fill="#D36516"/>
<path d="M95.3464 18C96.6758 18 97.6352 19.273 97.269 20.551L81.0013 77.3183C80.7555 78.1761 79.9711 78.7673 79.0787 78.7673H65.6433C64.3421 78.7673 63.3873 77.5444 63.7031 76.2821L67.5864 60.755C67.9022 59.4926 66.9474 58.2697 65.6462 58.2697H42.607C41.2776 58.2697 40.3182 56.9969 40.6843 55.7189L44.5268 42.305C44.7726 41.4471 45.5571 40.8558 46.4495 40.8558H72.4566C73.3495 40.8558 74.1343 40.2638 74.3796 39.4052L80.081 19.4506C80.3263 18.592 81.111 18 82.004 18H95.3464Z" fill="url(#paint4_radial_537_10)" fill-opacity="0.7"/>
<path d="M95.3464 18C96.6758 18 97.6352 19.273 97.269 20.551L81.0013 77.3183C80.7555 78.1761 79.9711 78.7673 79.0787 78.7673H65.6433C64.3421 78.7673 63.3873 77.5444 63.7031 76.2821L67.5864 60.755C67.9022 59.4926 66.9474 58.2697 65.6462 58.2697H42.607C41.2776 58.2697 40.3182 56.9969 40.6843 55.7189L44.5268 42.305C44.7726 41.4471 45.5571 40.8558 46.4495 40.8558H72.4566C73.3495 40.8558 74.1343 40.2638 74.3796 39.4052L80.081 19.4506C80.3263 18.592 81.111 18 82.004 18H95.3464Z" fill="url(#paint5_radial_537_10)"/>
<line opacity="0.2" x1="110.5" y1="18" x2="110.5" y2="83" stroke="url(#paint6_linear_537_10)" stroke-opacity="0.88"/>
<path opacity="0.25" fill-rule="evenodd" clip-rule="evenodd" d="M404.84 10.4151C404.727 10.4151 404.619 10.4598 404.539 10.5394C404.46 10.6191 404.415 10.727 404.415 10.8396V22.1604C404.415 22.3947 404.605 22.5849 404.84 22.5849H416.16C416.273 22.5849 416.381 22.5402 416.461 22.4606C416.54 22.3809 416.585 22.273 416.585 22.1604V17.6321C416.585 17.4444 416.659 17.2645 416.792 17.1318C416.925 16.9991 417.105 16.9245 417.292 16.9245C417.48 16.9245 417.66 16.9991 417.793 17.1318C417.925 17.2645 418 17.4444 418 17.6321V22.1604C418 23.177 417.177 24 416.16 24H404.84C404.352 24 403.884 23.8062 403.539 23.4612C403.194 23.1162 403 22.6483 403 22.1604V10.8396C403 9.82415 403.824 9 404.84 9H409.368C409.556 9 409.736 9.07454 409.868 9.20724C410.001 9.33993 410.075 9.51989 410.075 9.70755C410.075 9.8952 410.001 10.0752 409.868 10.2079C409.736 10.3405 409.556 10.4151 409.368 10.4151H404.84ZM412.057 9.70755C412.057 9.31698 412.374 9 412.764 9H417.292C417.683 9 418 9.31698 418 9.70755V14.2358C418 14.4235 417.925 14.6035 417.793 14.7362C417.66 14.8689 417.48 14.9434 417.292 14.9434C417.105 14.9434 416.925 14.8689 416.792 14.7362C416.659 14.6035 416.585 14.4235 416.585 14.2358V11.4158L411 17.0004C410.868 17.1331 410.688 17.2076 410.5 17.2076C410.312 17.2076 410.132 17.1331 410 17.0004C409.867 16.8677 409.792 16.6877 409.792 16.5C409.792 16.3123 409.867 16.1323 410 15.9996L415.584 10.4151H412.764C412.576 10.4151 412.397 10.3405 412.264 10.2079C412.131 10.0752 412.057 9.8952 412.057 9.70755Z" fill="white"/>
<path opacity="0.25" fill-rule="evenodd" clip-rule="evenodd" d="M438.752 11.3936C438.643 11.2744 438.511 11.1783 438.364 11.1109C438.218 11.0435 438.06 11.006 437.9 11.0007C437.739 10.9953 437.579 11.0221 437.429 11.0796C437.278 11.1371 437.141 11.2241 437.023 11.3357C436.906 11.4474 436.812 11.5813 436.745 11.7301C436.679 11.8788 436.642 12.0393 436.637 12.2025C436.632 12.3657 436.658 12.5284 436.715 12.6812C436.771 12.834 436.857 12.974 436.967 13.0932L440.1 16.5L436.965 19.9068C436.856 20.026 436.77 20.166 436.713 20.3188C436.657 20.4716 436.63 20.6343 436.636 20.7975C436.641 20.9607 436.678 21.1212 436.744 21.2699C436.81 21.4187 436.905 21.5526 437.022 21.6642C437.139 21.7759 437.277 21.8629 437.428 21.9204C437.578 21.9779 437.738 22.0047 437.898 21.9993C438.059 21.994 438.217 21.9565 438.363 21.8891C438.51 21.8217 438.641 21.7256 438.751 21.6064L442.67 17.3492C442.882 17.1189 443 16.8153 443 16.5C443 16.1847 442.882 15.8811 442.67 15.6508L438.752 11.3936ZM432.036 13.0932C432.146 12.974 432.231 12.834 432.288 12.6812C432.344 12.5284 432.371 12.3657 432.366 12.2025C432.36 12.0393 432.323 11.8788 432.257 11.7301C432.191 11.5813 432.096 11.4474 431.979 11.3357C431.862 11.2241 431.724 11.1371 431.574 11.0796C431.423 11.0221 431.263 10.9953 431.103 11.0007C430.779 11.0115 430.472 11.1528 430.25 11.3936L426.33 15.6508C426.118 15.8811 426 16.1847 426 16.5C426 16.8153 426.118 17.1189 426.33 17.3492L430.248 21.6064C430.469 21.8472 430.776 21.9885 431.1 21.9993C431.425 22.0102 431.74 21.8896 431.977 21.6642C432.213 21.4389 432.352 21.1271 432.363 20.7975C432.374 20.4679 432.255 20.1475 432.033 19.9068L428.901 16.5L432.036 13.0932Z" fill="white"/>
</g>
<defs>
<radialGradient id="paint0_radial_537_10" cx="0" cy="0" r="1" gradientUnits="userSpaceOnUse" gradientTransform="translate(236 -94.5833) rotate(84.8129) scale(176.975 674.902)">
<stop stop-color="#202020"/>
<stop offset="0.462104" stop-color="#3C3C3C"/>
<stop offset="1" stop-color="#2D2D2D"/>
</radialGradient>
<radialGradient id="paint1_radial_537_10" cx="0" cy="0" r="1" gradientUnits="userSpaceOnUse" gradientTransform="translate(63.5 65.4167) rotate(10.9853) scale(470.114 313.115)">
<stop stop-opacity="0.15"/>
<stop offset="0.126871" stop-opacity="0.48"/>
<stop offset="0.632272" stop-color="#1F0000" stop-opacity="0"/>
<stop offset="1" stop-opacity="0"/>
</radialGradient>
<radialGradient id="paint2_radial_537_10" cx="0" cy="0" r="1" gradientUnits="userSpaceOnUse" gradientTransform="translate(31.9087 31.8928) rotate(51.8474) scale(50.444 50.1213)">
<stop stop-color="white" stop-opacity="0.59"/>
<stop offset="0.697917" stop-color="white" stop-opacity="0"/>
<stop offset="1" stop-color="white" stop-opacity="0"/>
</radialGradient>
<radialGradient id="paint3_radial_537_10" cx="0" cy="0" r="1" gradientUnits="userSpaceOnUse" gradientTransform="translate(29.7747 19.2329) rotate(64.4419) scale(52.9245 107.163)">
<stop stop-opacity="0.23"/>
<stop offset="0.861815" stop-color="white" stop-opacity="0.06"/>
</radialGradient>
<radialGradient id="paint4_radial_537_10" cx="0" cy="0" r="1" gradientUnits="userSpaceOnUse" gradientTransform="translate(55.2714 30.6599) rotate(52.3208) scale(50.1204 49.5925)">
<stop stop-color="white" stop-opacity="0.59"/>
<stop offset="0.697917" stop-color="white" stop-opacity="0"/>
<stop offset="1" stop-color="white" stop-opacity="0"/>
</radialGradient>
<radialGradient id="paint5_radial_537_10" cx="0" cy="0" r="1" gradientUnits="userSpaceOnUse" gradientTransform="translate(53.1735 18) rotate(64.8199) scale(52.7592 105.682)">
<stop stop-opacity="0.23"/>
<stop offset="0.861815" stop-color="white" stop-opacity="0.06"/>
</radialGradient>
<linearGradient id="paint6_linear_537_10" x1="109.5" y1="18" x2="109.5" y2="83" gradientUnits="userSpaceOnUse">
<stop stop-color="#AAAAAA"/>
<stop offset="1" stop-color="#A3A3A3"/>
</linearGradient>
<clipPath id="clip0_537_10">
<rect width="450" height="100" fill="white"/>
</clipPath>
</defs>
</svg>
