<svg width="356" height="67" viewBox="0 0 356 67" fill="none" xmlns="http://www.w3.org/2000/svg">
<g clip-path="url(#clip0_537_10)">
<rect width="356" height="67" fill="url(#paint0_radial_537_10)"/>
<rect x="0.5" y="0.5" width="355" height="66" fill="url(#paint1_radial_537_10)" fill-opacity="0.2" style="mix-blend-mode:soft-light"/>
<rect x="0.5" y="0.5" width="355" height="66" stroke="#ED4F16"/>
<path d="M102.882 20.49C102.882 22.704 101.136 24.234 98.13 24.234C96.114 24.234 94.602 23.604 93.558 22.578L94.71 21.3C95.592 22.11 96.672 22.596 98.13 22.596C99.534 22.596 100.704 21.93 100.704 20.598C100.704 19.5 100.146 18.978 98.166 18.384C95.52 17.61 94.152 16.62 94.152 14.694C94.152 12.66 95.97 11.328 98.418 11.328C100.2 11.328 101.514 11.868 102.576 12.822L101.478 14.064C100.596 13.308 99.57 12.966 98.544 12.966C97.266 12.966 96.294 13.488 96.294 14.568C96.294 15.54 96.978 15.99 99.192 16.638C101.298 17.268 102.882 18.15 102.882 20.49ZM110.039 14.244C112.541 14.244 113.495 16.206 113.495 19.23C113.495 22.128 112.235 24.234 109.823 24.234C108.833 24.234 108.023 23.892 107.411 23.19V27.654L105.395 27.888V14.496H107.141L107.267 15.72C107.987 14.748 108.977 14.244 110.039 14.244ZM109.481 15.792C108.581 15.792 107.879 16.422 107.411 17.16V21.606C107.861 22.29 108.509 22.668 109.283 22.668C110.651 22.668 111.371 21.624 111.371 19.248C111.371 16.8 110.741 15.792 109.481 15.792ZM120.004 14.244C122.776 14.244 124.288 16.206 124.288 19.23C124.288 22.254 122.74 24.234 119.986 24.234C117.214 24.234 115.684 22.326 115.684 19.248C115.684 16.278 117.232 14.244 120.004 14.244ZM120.004 15.81C118.546 15.81 117.808 16.89 117.808 19.248C117.808 21.606 118.528 22.686 119.986 22.686C121.444 22.686 122.164 21.606 122.164 19.23C122.164 16.89 121.444 15.81 120.004 15.81ZM126.981 24V14.496H128.727L128.871 15.738C129.663 14.766 130.797 14.244 131.949 14.244C133.713 14.244 134.595 15.288 134.595 17.07V24H132.579V18.078C132.579 16.422 132.381 15.792 131.229 15.792C130.293 15.792 129.501 16.458 128.997 17.178V24H126.981ZM141.23 22.704C142.49 22.704 143.282 22.218 143.282 21.426C143.282 20.652 142.976 20.292 141.014 19.788C139.124 19.302 137.882 18.636 137.882 16.98C137.882 15.342 139.34 14.244 141.68 14.244C143.282 14.244 144.434 14.712 145.298 15.342L144.434 16.62C143.696 16.134 142.85 15.774 141.734 15.774C140.438 15.774 139.934 16.188 139.934 16.818C139.934 17.538 140.456 17.808 142.346 18.33C144.2 18.834 145.424 19.482 145.424 21.282C145.424 23.352 143.408 24.234 141.23 24.234C139.466 24.234 138.206 23.658 137.324 22.902L138.386 21.678C139.124 22.272 140.114 22.704 141.23 22.704ZM152.383 14.244C155.155 14.244 156.667 16.206 156.667 19.23C156.667 22.254 155.119 24.234 152.365 24.234C149.593 24.234 148.063 22.326 148.063 19.248C148.063 16.278 149.611 14.244 152.383 14.244ZM152.383 15.81C150.925 15.81 150.187 16.89 150.187 19.248C150.187 21.606 150.907 22.686 152.365 22.686C153.823 22.686 154.543 21.606 154.543 19.23C154.543 16.89 153.823 15.81 152.383 15.81ZM166.092 14.262C166.668 14.262 167.1 14.352 167.532 14.496L167.19 18.006H165.75V16.062C164.4 16.098 163.428 17.178 162.87 19.032V22.56H164.778V24H159.45V22.56H160.854V15.936H159.45V14.496H162.384L162.744 16.692C163.464 15.108 164.454 14.262 166.092 14.262ZM171.827 19.896C171.953 21.84 173.051 22.668 174.419 22.668C175.337 22.668 176.111 22.38 176.921 21.84L177.785 23.064C176.903 23.784 175.661 24.234 174.329 24.234C171.359 24.234 169.739 22.218 169.739 19.248C169.739 16.404 171.377 14.244 174.077 14.244C176.597 14.244 178.181 16.044 178.181 18.996C178.181 19.32 178.163 19.662 178.127 19.896H171.827ZM174.095 15.738C172.835 15.738 171.935 16.62 171.809 18.528H176.219C176.183 16.728 175.445 15.738 174.095 15.738ZM186.526 10.446L188.542 10.68V24H186.76L186.616 22.83C185.986 23.73 185.068 24.234 183.952 24.234C181.504 24.234 180.37 22.236 180.37 19.248C180.37 16.35 181.792 14.244 184.132 14.244C185.122 14.244 185.914 14.604 186.526 15.288V10.446ZM184.654 15.792C183.304 15.792 182.512 16.872 182.512 19.248C182.512 21.678 183.232 22.704 184.492 22.704C185.392 22.704 186.058 22.092 186.526 21.336V16.854C186.058 16.188 185.428 15.792 184.654 15.792Z" fill="white" fill-opacity="0.38"/>
<path d="M103.281 30.7108C104.659 30.7108 105.827 30.8927 106.785 31.2564C107.742 31.6106 108.627 32.1227 109.441 32.7928L107.445 35.1621C106.871 34.693 106.249 34.334 105.578 34.0851C104.908 33.8267 104.19 33.6974 103.425 33.6974C102.496 33.6974 101.644 33.9415 100.869 34.4297C100.103 34.9179 99.4903 35.7029 99.0308 36.7846C98.5713 37.8568 98.3415 39.2735 98.3415 41.0349C98.3415 42.7675 98.5617 44.1699 99.0021 45.2421C99.452 46.3046 100.06 47.0848 100.826 47.5826C101.601 48.0803 102.477 48.3292 103.453 48.3292C104.487 48.3292 105.344 48.1521 106.024 47.7979C106.713 47.4342 107.325 47.0321 107.862 46.5918L109.714 48.9323C109.015 49.6215 108.139 50.2103 107.086 50.6985C106.043 51.1867 104.774 51.4308 103.281 51.4308C101.548 51.4308 100.002 51.0383 98.6431 50.2533C97.2838 49.4588 96.2164 48.2909 95.441 46.7497C94.6656 45.199 94.2779 43.294 94.2779 41.0349C94.2779 38.814 94.6752 36.9378 95.4697 35.4062C96.2738 33.865 97.3556 32.6971 98.7149 31.9026C100.084 31.108 101.606 30.7108 103.281 30.7108ZM118.856 35.3631C120.369 35.3631 121.652 35.6933 122.705 36.3538C123.758 37.0144 124.557 37.9477 125.102 39.1538C125.658 40.3504 125.935 41.7528 125.935 43.361C125.935 45.8308 125.318 47.7932 124.083 49.2482C122.848 50.7032 121.101 51.4308 118.842 51.4308C116.583 51.4308 114.836 50.7176 113.601 49.2913C112.366 47.8554 111.749 45.8882 111.749 43.3897C111.749 41.8007 112.026 40.4031 112.581 39.1969C113.137 37.9908 113.941 37.0526 114.994 36.3826C116.056 35.7029 117.344 35.3631 118.856 35.3631ZM118.856 38.2205C117.794 38.2205 116.999 38.6369 116.473 39.4697C115.956 40.3026 115.697 41.6092 115.697 43.3897C115.697 45.1894 115.956 46.5056 116.473 47.3385C116.99 48.1617 117.779 48.5733 118.842 48.5733C119.905 48.5733 120.694 48.1617 121.211 47.3385C121.728 46.5056 121.987 45.1798 121.987 43.361C121.987 41.5901 121.728 40.293 121.211 39.4697C120.694 38.6369 119.909 38.2205 118.856 38.2205ZM136.054 28.1262C136.743 28.1262 137.308 28.3415 137.749 28.7723C138.189 29.2031 138.409 29.7391 138.409 30.3805C138.409 31.0219 138.189 31.5627 137.749 32.0031C137.308 32.4338 136.743 32.6492 136.054 32.6492C135.355 32.6492 134.786 32.4338 134.345 32.0031C133.905 31.5627 133.685 31.0219 133.685 30.3805C133.685 29.7391 133.905 29.2031 134.345 28.7723C134.786 28.3415 135.355 28.1262 136.054 28.1262ZM138.51 35.7938V48.3149H142.516V51H130.267V48.3149H134.719V38.479H130.411V35.7938H138.51ZM146.991 51V35.7938H150.294L150.567 37.6749C151.878 36.1337 153.487 35.3631 155.391 35.3631C156.751 35.3631 157.789 35.7603 158.507 36.5549C159.235 37.3398 159.599 38.4455 159.599 39.8718V51H155.808V41.3508C155.808 40.2021 155.688 39.3884 155.449 38.9097C155.219 38.4311 154.721 38.1918 153.956 38.1918C153.333 38.1918 152.754 38.388 152.218 38.7805C151.682 39.173 151.203 39.6516 150.782 40.2164V51H146.991ZM175.361 38.6369V43.72H177.543V46.6062H175.361V51H171.713L171.685 46.6062H163.457V44.0215L169.086 30.7108L172.302 31.9313L167.391 43.72H171.713L172.159 38.6369H175.361ZM185.235 29.361V37.5026C185.867 36.7846 186.576 36.2485 187.361 35.8944C188.155 35.5402 188.983 35.3631 189.845 35.3631C191.242 35.3631 192.29 35.7603 192.989 36.5549C193.698 37.3398 194.052 38.4455 194.052 39.8718V51H190.261V40.719C190.261 39.8 190.117 39.1491 189.83 38.7662C189.553 38.3832 189.074 38.1918 188.394 38.1918C187.782 38.1918 187.207 38.3976 186.671 38.8092C186.135 39.2113 185.657 39.7043 185.235 40.2882V51H181.445V29.7344L185.235 29.361ZM202.462 35.7938V46.3333C202.462 47.1566 202.625 47.7357 202.95 48.0708C203.276 48.4058 203.749 48.5733 204.372 48.5733C204.965 48.5733 205.544 48.3962 206.109 48.0421C206.674 47.6783 207.133 47.2188 207.488 46.6636V35.7938H211.278V51H207.976L207.775 49.1333C207.229 49.88 206.53 50.4496 205.678 50.8421C204.826 51.2345 203.946 51.4308 203.036 51.4308C201.572 51.4308 200.476 51.0191 199.748 50.1959C199.03 49.3631 198.671 48.2287 198.671 46.7928V35.7938H202.462ZM219.689 37.5026C220.196 36.8421 220.794 36.3203 221.483 35.9374C222.182 35.5545 222.934 35.3631 223.738 35.3631C225.719 35.3631 227.155 36.0906 228.045 37.5456C228.936 38.9911 229.381 40.9296 229.381 43.361C229.381 44.9214 229.151 46.3094 228.692 47.5251C228.232 48.7409 227.548 49.6981 226.638 50.3969C225.738 51.0862 224.633 51.4308 223.321 51.4308C221.665 51.4308 220.368 50.8038 219.43 49.5497L219.258 51H215.898V29.72L219.689 29.318V37.5026ZM222.345 48.6021C223.312 48.6021 224.068 48.1904 224.614 47.3672C225.159 46.5439 225.432 45.2229 225.432 43.4041C225.432 41.48 225.183 40.135 224.685 39.3692C224.188 38.5938 223.503 38.2062 222.632 38.2062C222 38.2062 221.44 38.3976 220.952 38.7805C220.473 39.1634 220.052 39.6373 219.689 40.2021V47.0082C220.014 47.5156 220.397 47.908 220.837 48.1856C221.278 48.4632 221.78 48.6021 222.345 48.6021ZM236.456 48.4585C236.456 47.6544 236.743 46.9603 237.317 46.3764C237.891 45.7925 238.59 45.5005 239.414 45.5005C240.246 45.5005 240.95 45.7925 241.524 46.3764C242.099 46.9603 242.386 47.6544 242.386 48.4585C242.386 49.2721 242.099 49.9709 241.524 50.5549C240.95 51.1388 240.246 51.4308 239.414 51.4308C238.59 51.4308 237.891 51.1388 237.317 50.5549C236.743 49.9709 236.456 49.2721 236.456 48.4585ZM258.004 48.3867C258.674 48.3867 259.301 48.2622 259.885 48.0133C260.469 47.7644 261.039 47.4485 261.594 47.0656L263.317 49.4923C262.647 50.0571 261.838 50.5214 260.89 50.8851C259.943 51.2489 258.928 51.4308 257.846 51.4308C256.248 51.4308 254.879 51.1005 253.74 50.44C252.61 49.7795 251.744 48.8509 251.141 47.6544C250.538 46.4578 250.236 45.0697 250.236 43.4903C250.236 41.9299 250.542 40.5371 251.155 39.3118C251.777 38.0865 252.658 37.1244 253.797 36.4256C254.946 35.7173 256.315 35.3631 257.904 35.3631C258.995 35.3631 259.981 35.521 260.862 35.8369C261.752 36.1432 262.566 36.6027 263.303 37.2154L261.623 39.5415C261.058 39.1586 260.474 38.8619 259.871 38.6513C259.268 38.4407 258.65 38.3354 258.019 38.3354C256.899 38.3354 255.984 38.7422 255.276 39.5559C254.577 40.36 254.228 41.6715 254.228 43.4903C254.228 45.2899 254.587 46.5583 255.305 47.2954C256.023 48.0229 256.922 48.3867 258.004 48.3867ZM273.895 35.3631C275.408 35.3631 276.691 35.6933 277.744 36.3538C278.797 37.0144 279.596 37.9477 280.142 39.1538C280.697 40.3504 280.974 41.7528 280.974 43.361C280.974 45.8308 280.357 47.7932 279.122 49.2482C277.887 50.7032 276.14 51.4308 273.881 51.4308C271.622 51.4308 269.875 50.7176 268.64 49.2913C267.405 47.8554 266.788 45.8882 266.788 43.3897C266.788 41.8007 267.065 40.4031 267.62 39.1969C268.176 37.9908 268.98 37.0526 270.033 36.3826C271.095 35.7029 272.383 35.3631 273.895 35.3631ZM273.895 38.2205C272.833 38.2205 272.038 38.6369 271.512 39.4697C270.995 40.3026 270.736 41.6092 270.736 43.3897C270.736 45.1894 270.995 46.5056 271.512 47.3385C272.029 48.1617 272.818 48.5733 273.881 48.5733C274.944 48.5733 275.733 48.1617 276.25 47.3385C276.767 46.5056 277.026 45.1798 277.026 43.361C277.026 41.5901 276.767 40.293 276.25 39.4697C275.733 38.6369 274.948 38.2205 273.895 38.2205ZM295.616 35.3631C296.574 35.3631 297.33 35.6838 297.885 36.3251C298.44 36.9569 298.718 38.0913 298.718 39.7282V51H295.415V40.2021C295.415 39.5224 295.363 39.039 295.257 38.7518C295.152 38.455 294.903 38.3067 294.511 38.3067C294.195 38.3067 293.874 38.4024 293.549 38.5938C293.223 38.7757 292.893 39.106 292.558 39.5846V51H289.7V40.2021C289.7 39.5224 289.648 39.039 289.542 38.7518C289.437 38.455 289.188 38.3067 288.796 38.3067C288.48 38.3067 288.159 38.4024 287.834 38.5938C287.508 38.7757 287.178 39.106 286.843 39.5846V51H283.497V35.7938H286.326L286.57 37.3733C287.02 36.7511 287.494 36.2629 287.992 35.9087C288.489 35.545 289.088 35.3631 289.787 35.3631C290.361 35.3631 290.868 35.5067 291.309 35.7938C291.759 36.0715 292.079 36.5501 292.271 37.2297C292.711 36.6745 293.199 36.2246 293.735 35.88C294.281 35.5354 294.908 35.3631 295.616 35.3631Z" fill="white" fill-opacity="0.68"/>
<path d="M22.2733 53.2627C21.6155 53.2627 20.9997 52.9392 20.6265 52.3975L13.5363 42.1088C13.1968 41.6161 13.0957 40.9972 13.2608 40.4221L18.0866 23.6131C18.3328 22.7557 19.117 22.165 20.009 22.165H28.6192C29.511 22.165 30.2951 21.5746 30.5414 20.7175L32.6769 13.2879C32.9232 12.4308 33.7073 11.8403 34.5991 11.8403H50.5923C51.9223 11.8403 52.8818 13.1142 52.5146 14.3925L50.325 22.0155C50.0788 22.8727 49.2947 23.4633 48.4028 23.4633H31.7187C30.8149 23.4633 30.0235 24.0694 29.7879 24.9418L26.0403 38.8174C25.6976 40.086 26.6507 41.3347 27.9647 41.3389L42.1332 41.384C43.4598 41.3882 44.4148 42.6593 44.0495 43.9347L41.7925 51.8134C41.5468 52.6714 40.7623 53.2627 39.8699 53.2627H22.2733Z" fill="#D36516"/>
<path d="M22.2733 53.2627C21.6155 53.2627 20.9997 52.9392 20.6265 52.3975L13.5363 42.1088C13.1968 41.6161 13.0957 40.9972 13.2608 40.4221L18.0866 23.6131C18.3328 22.7557 19.117 22.165 20.009 22.165H28.6192C29.511 22.165 30.2951 21.5746 30.5414 20.7175L32.6769 13.2879C32.9232 12.4308 33.7073 11.8403 34.5991 11.8403H50.5923C51.9223 11.8403 52.8818 13.1142 52.5146 14.3925L50.325 22.0155C50.0788 22.8727 49.2947 23.4633 48.4028 23.4633H31.7187C30.8149 23.4633 30.0235 24.0694 29.7879 24.9418L26.0403 38.8174C25.6976 40.086 26.6507 41.3347 27.9647 41.3389L42.1332 41.384C43.4598 41.3882 44.4148 42.6593 44.0495 43.9347L41.7925 51.8134C41.5468 52.6714 40.7623 53.2627 39.8699 53.2627H22.2733Z" fill="url(#paint2_radial_537_10)" fill-opacity="0.7"/>
<path d="M22.2733 53.2627C21.6155 53.2627 20.9997 52.9392 20.6265 52.3975L13.5363 42.1088C13.1968 41.6161 13.0957 40.9972 13.2608 40.4221L18.0866 23.6131C18.3328 22.7557 19.117 22.165 20.009 22.165H28.6192C29.511 22.165 30.2951 21.5746 30.5414 20.7175L32.6769 13.2879C32.9232 12.4308 33.7073 11.8403 34.5991 11.8403H50.5923C51.9223 11.8403 52.8818 13.1142 52.5146 14.3925L50.325 22.0155C50.0788 22.8727 49.2947 23.4633 48.4028 23.4633H31.7187C30.8149 23.4633 30.0235 24.0694 29.7879 24.9418L26.0403 38.8174C25.6976 40.086 26.6507 41.3347 27.9647 41.3389L42.1332 41.384C43.4598 41.3882 44.4148 42.6593 44.0495 43.9347L41.7925 51.8134C41.5468 52.6714 40.7623 53.2627 39.8699 53.2627H22.2733Z" fill="url(#paint3_radial_537_10)"/>
<path d="M66.0187 11C67.3481 11 68.3076 12.273 67.9413 13.551L57.2173 50.9733C56.9715 51.8311 56.1871 52.4223 55.2947 52.4223H47.4318C46.1305 52.4223 45.1758 51.1994 45.4915 49.9371L47.7429 40.9353C48.0586 39.6729 47.1039 38.45 45.8027 38.45H31.7581C30.4288 38.45 29.4694 37.1772 29.8354 35.8993L32.0899 28.029C32.3357 27.171 33.1202 26.5797 34.0126 26.5797H50.7803C51.6732 26.5797 52.458 25.9878 52.7033 25.1292L56.3258 12.4506C56.5711 11.592 57.3559 11 58.2488 11H66.0187Z" fill="#D36516"/>
<path d="M66.0187 11C67.3481 11 68.3076 12.273 67.9413 13.551L57.2173 50.9733C56.9715 51.8311 56.1871 52.4223 55.2947 52.4223H47.4318C46.1305 52.4223 45.1758 51.1994 45.4915 49.9371L47.7429 40.9353C48.0586 39.6729 47.1039 38.45 45.8027 38.45H31.7581C30.4288 38.45 29.4694 37.1772 29.8354 35.8993L32.0899 28.029C32.3357 27.171 33.1202 26.5797 34.0126 26.5797H50.7803C51.6732 26.5797 52.458 25.9878 52.7033 25.1292L56.3258 12.4506C56.5711 11.592 57.3559 11 58.2488 11H66.0187Z" fill="url(#paint4_radial_537_10)" fill-opacity="0.7"/>
<path d="M66.0187 11C67.3481 11 68.3076 12.273 67.9413 13.551L57.2173 50.9733C56.9715 51.8311 56.1871 52.4223 55.2947 52.4223H47.4318C46.1305 52.4223 45.1758 51.1994 45.4915 49.9371L47.7429 40.9353C48.0586 39.6729 47.1039 38.45 45.8027 38.45H31.7581C30.4288 38.45 29.4694 37.1772 29.8354 35.8993L32.0899 28.029C32.3357 27.171 33.1202 26.5797 34.0126 26.5797H50.7803C51.6732 26.5797 52.458 25.9878 52.7033 25.1292L56.3258 12.4506C56.5711 11.592 57.3559 11 58.2488 11H66.0187Z" fill="url(#paint5_radial_537_10)"/>
<line opacity="0.2" x1="79.5" y1="10" x2="79.5" y2="58" stroke="url(#paint6_linear_537_10)" stroke-opacity="0.88"/>
<path opacity="0.25" fill-rule="evenodd" clip-rule="evenodd" d="M311.84 10.4151C311.727 10.4151 311.619 10.4598 311.539 10.5394C311.46 10.6191 311.415 10.727 311.415 10.8396V22.1604C311.415 22.3947 311.605 22.5849 311.84 22.5849H323.16C323.273 22.5849 323.381 22.5402 323.461 22.4606C323.54 22.3809 323.585 22.273 323.585 22.1604V17.6321C323.585 17.4444 323.659 17.2645 323.792 17.1318C323.925 16.9991 324.105 16.9245 324.292 16.9245C324.48 16.9245 324.66 16.9991 324.793 17.1318C324.925 17.2645 325 17.4444 325 17.6321V22.1604C325 23.177 324.177 24 323.16 24H311.84C311.352 24 310.884 23.8062 310.539 23.4612C310.194 23.1162 310 22.6483 310 22.1604V10.8396C310 9.82415 310.824 9 311.84 9H316.368C316.556 9 316.736 9.07454 316.868 9.20724C317.001 9.33993 317.075 9.51989 317.075 9.70755C317.075 9.8952 317.001 10.0752 316.868 10.2079C316.736 10.3405 316.556 10.4151 316.368 10.4151H311.84ZM319.057 9.70755C319.057 9.31698 319.374 9 319.764 9H324.292C324.683 9 325 9.31698 325 9.70755V14.2358C325 14.4235 324.925 14.6035 324.793 14.7362C324.66 14.8689 324.48 14.9434 324.292 14.9434C324.105 14.9434 323.925 14.8689 323.792 14.7362C323.659 14.6035 323.585 14.4235 323.585 14.2358V11.4158L318 17.0004C317.868 17.1331 317.688 17.2076 317.5 17.2076C317.312 17.2076 317.132 17.1331 317 17.0004C316.867 16.8677 316.792 16.6877 316.792 16.5C316.792 16.3123 316.867 16.1323 317 15.9996L322.584 10.4151H319.764C319.576 10.4151 319.397 10.3405 319.264 10.2079C319.131 10.0752 319.057 9.8952 319.057 9.70755Z" fill="white"/>
<path opacity="0.25" fill-rule="evenodd" clip-rule="evenodd" d="M345.752 11.3936C345.643 11.2744 345.511 11.1783 345.364 11.1109C345.218 11.0435 345.06 11.006 344.9 11.0007C344.739 10.9953 344.579 11.0221 344.429 11.0796C344.278 11.1371 344.141 11.2241 344.023 11.3357C343.906 11.4474 343.812 11.5813 343.745 11.7301C343.679 11.8788 343.642 12.0393 343.637 12.2025C343.632 12.3657 343.658 12.5284 343.715 12.6812C343.771 12.834 343.857 12.974 343.967 13.0932L347.1 16.5L343.965 19.9068C343.856 20.026 343.77 20.166 343.713 20.3188C343.657 20.4716 343.63 20.6343 343.636 20.7975C343.641 20.9607 343.678 21.1212 343.744 21.2699C343.81 21.4187 343.905 21.5526 344.022 21.6642C344.139 21.7759 344.277 21.8629 344.428 21.9204C344.578 21.9779 344.738 22.0047 344.898 21.9993C345.059 21.994 345.217 21.9565 345.363 21.8891C345.51 21.8217 345.641 21.7256 345.751 21.6064L349.67 17.3492C349.882 17.1189 350 16.8153 350 16.5C350 16.1847 349.882 15.8811 349.67 15.6508L345.752 11.3936ZM339.036 13.0932C339.146 12.974 339.231 12.834 339.288 12.6812C339.344 12.5284 339.371 12.3657 339.366 12.2025C339.36 12.0393 339.323 11.8788 339.257 11.7301C339.191 11.5813 339.096 11.4474 338.979 11.3357C338.862 11.2241 338.724 11.1371 338.574 11.0796C338.423 11.0221 338.263 10.9953 338.103 11.0007C337.779 11.0115 337.472 11.1528 337.25 11.3936L333.33 15.6508C333.118 15.8811 333 16.1847 333 16.5C333 16.8153 333.118 17.1189 333.33 17.3492L337.248 21.6064C337.469 21.8472 337.776 21.9885 338.1 21.9993C338.425 22.0102 338.74 21.8896 338.977 21.6642C339.213 21.4389 339.352 21.1271 339.363 20.7975C339.374 20.4679 339.255 20.1475 339.033 19.9068L335.901 16.5L339.036 13.0932Z" fill="white"/>
</g>
<defs>
<radialGradient id="paint0_radial_537_10" cx="0" cy="0" r="1" gradientUnits="userSpaceOnUse" gradientTransform="translate(186.702 -63.3708) rotate(83.8818) scale(118.764 533.064)">
<stop stop-color="#202020"/>
<stop offset="0.462104" stop-color="#3C3C3C"/>
<stop offset="1" stop-color="#2D2D2D"/>
</radialGradient>
<radialGradient id="paint1_radial_537_10" cx="0" cy="0" r="1" gradientUnits="userSpaceOnUse" gradientTransform="translate(50.2356 43.8292) rotate(9.33573) scale(369.998 210.872)">
<stop stop-opacity="0.15"/>
<stop offset="0.126871" stop-opacity="0.48"/>
<stop offset="0.632272" stop-color="#1F0000" stop-opacity="0"/>
<stop offset="1" stop-opacity="0"/>
</radialGradient>
<radialGradient id="paint2_radial_537_10" cx="0" cy="0" r="1" gradientUnits="userSpaceOnUse" gradientTransform="translate(23.6209 20.47) rotate(51.8474) scale(34.3854 34.1654)">
<stop stop-color="white" stop-opacity="0.59"/>
<stop offset="0.697917" stop-color="white" stop-opacity="0"/>
<stop offset="1" stop-color="white" stop-opacity="0"/>
</radialGradient>
<radialGradient id="paint3_radial_537_10" cx="0" cy="0" r="1" gradientUnits="userSpaceOnUse" gradientTransform="translate(22.1663 11.8403) rotate(64.4419) scale(36.0763 73.0479)">
<stop stop-opacity="0.23"/>
<stop offset="0.861815" stop-color="white" stop-opacity="0.06"/>
</radialGradient>
<radialGradient id="paint4_radial_537_10" cx="0" cy="0" r="1" gradientUnits="userSpaceOnUse" gradientTransform="translate(39.5462 19.6297) rotate(52.3208) scale(34.1648 33.8049)">
<stop stop-color="white" stop-opacity="0.59"/>
<stop offset="0.697917" stop-color="white" stop-opacity="0"/>
<stop offset="1" stop-color="white" stop-opacity="0"/>
</radialGradient>
<radialGradient id="paint5_radial_537_10" cx="0" cy="0" r="1" gradientUnits="userSpaceOnUse" gradientTransform="translate(38.1161 11) rotate(64.8199) scale(35.9636 72.0386)">
<stop stop-opacity="0.23"/>
<stop offset="0.861815" stop-color="white" stop-opacity="0.06"/>
</radialGradient>
<linearGradient id="paint6_linear_537_10" x1="78.5" y1="10" x2="78.5" y2="58" gradientUnits="userSpaceOnUse">
<stop stop-color="#AAAAAA"/>
<stop offset="1" stop-color="#A3A3A3"/>
</linearGradient>
<clipPath id="clip0_537_10">
<rect width="356" height="67" fill="white"/>
</clipPath>
</defs>
</svg>
